<svg xmlns="http://www.w3.org/2000/svg" xmlns:xlink="http://www.w3.org/1999/xlink" width="500" zoomAndPan="magnify" viewBox="0 0 375 374.999991" height="500" preserveAspectRatio="xMidYMid meet" version="1.0"><defs><clipPath id="b295e2e1fe"><path d="M 107.527344 29.476562 L 279.277344 29.476562 L 279.277344 345 L 107.527344 345 Z M 107.527344 29.476562 " clip-rule="nonzero"/></clipPath><clipPath id="4b574216b5"><path d="M 107.527344 29.476562 L 279.277344 29.476562 L 279.277344 345 L 107.527344 345 Z M 107.527344 29.476562 " clip-rule="nonzero"/></clipPath></defs><g clip-path="url(#b295e2e1fe)"><path fill="#000000" d="M 237.304688 217.753906 C 235.910156 217.957031 234.71875 218.085938 233.546875 218.3125 C 230.125 218.96875 227.046875 220.429688 224.210938 222.425781 C 223.789062 222.722656 223.347656 222.992188 222.953125 223.320312 C 219.6875 226.007812 216.003906 226.429688 212.140625 225.082031 C 209.949219 224.316406 207.859375 223.226562 205.777344 222.171875 C 203.640625 221.082031 201.589844 219.828125 199.476562 218.699219 C 192.21875 214.816406 184.851562 215.222656 177.484375 218.296875 C 174.363281 219.597656 171.542969 221.460938 168.859375 223.527344 C 166.6875 225.203125 164.472656 226.820312 162.230469 228.402344 C 161.257812 229.089844 160.195312 229.675781 159.132812 230.21875 C 155.015625 232.332031 150.835938 232.492188 146.570312 230.621094 C 144.144531 229.554688 141.902344 228.207031 139.828125 226.578125 C 137.894531 225.058594 136.03125 223.457031 134.082031 221.957031 C 129.652344 218.542969 124.871094 215.804688 119.332031 214.605469 C 116.910156 214.078125 114.460938 213.96875 112 214.253906 C 111.265625 214.339844 110.527344 214.410156 109.808594 214.484375 C 109.425781 213.105469 109.488281 109.605469 109.851562 107.890625 C 111.277344 107.546875 233.738281 107.480469 237.464844 107.847656 C 237.460938 144.417969 237.34375 181.011719 237.304688 217.753906 Z M 120.675781 172.707031 C 120.773438 172.660156 120.875 172.609375 120.972656 172.558594 C 121.414062 173.195312 121.859375 173.828125 122.296875 174.464844 C 125.917969 179.742188 129.539062 185.023438 133.160156 190.296875 C 133.515625 190.8125 133.878906 191.53125 134.585938 191.273438 C 135.015625 191.117188 135.28125 190.476562 135.589844 190.03125 C 135.710938 189.847656 135.742188 189.601562 135.816406 189.386719 C 137.671875 184.046875 139.527344 178.703125 141.386719 173.363281 C 141.5625 172.851562 141.769531 172.347656 141.964844 171.839844 C 142.464844 173.433594 142.648438 174.996094 142.820312 176.558594 C 143.472656 182.632812 144.125 188.710938 144.78125 194.785156 C 144.824219 195.179688 144.816406 195.636719 145.019531 195.9375 C 145.207031 196.214844 145.664062 196.492188 145.96875 196.457031 C 146.226562 196.429688 146.558594 195.988281 146.632812 195.675781 C 146.734375 195.25 146.644531 194.769531 146.59375 194.316406 C 145.605469 185.515625 144.617188 176.71875 143.625 167.921875 C 143.585938 167.582031 143.605469 167.203125 143.453125 166.917969 C 143.316406 166.660156 142.992188 166.367188 142.730469 166.34375 C 142.460938 166.320312 142.078125 166.542969 141.90625 166.777344 C 141.679688 167.085938 141.609375 167.507812 141.476562 167.886719 C 139.269531 174.195312 137.0625 180.503906 134.851562 186.808594 C 134.652344 187.375 134.417969 187.929688 134.125 188.6875 C 133.636719 188.046875 133.28125 187.613281 132.960938 187.152344 C 129.007812 181.476562 125.0625 175.796875 121.113281 170.121094 C 120.820312 169.703125 120.542969 169.246094 120.164062 168.914062 C 119.605469 168.425781 118.851562 168.742188 118.804688 169.480469 C 118.765625 170.042969 118.867188 170.621094 118.945312 171.183594 C 119.9375 178.3125 120.941406 185.441406 121.941406 192.566406 C 122.179688 194.265625 122.40625 195.964844 122.675781 197.65625 C 122.761719 198.207031 123.105469 198.714844 123.707031 198.492188 C 123.988281 198.386719 124.109375 197.800781 124.257812 197.414062 C 124.308594 197.273438 124.226562 197.078125 124.203125 196.910156 C 123.488281 192.046875 122.773438 187.1875 122.0625 182.328125 C 121.59375 179.121094 121.136719 175.914062 120.675781 172.707031 Z M 212.28125 182.933594 C 212.6875 182.371094 212.996094 181.90625 213.339844 181.472656 C 216.480469 177.550781 219.628906 173.636719 222.769531 169.714844 C 223.089844 169.3125 223.449219 168.917969 223.648438 168.460938 C 223.753906 168.226562 223.644531 167.726562 223.457031 167.578125 C 223.253906 167.421875 222.761719 167.421875 222.535156 167.570312 C 222.167969 167.808594 221.898438 168.210938 221.613281 168.566406 C 218.503906 172.4375 215.398438 176.3125 212.285156 180.183594 C 211.941406 180.609375 211.570312 181.011719 211.03125 181.636719 C 210.898438 181.050781 210.804688 180.746094 210.761719 180.433594 C 210.210938 176.652344 209.675781 172.867188 209.121094 169.085938 C 208.929688 167.769531 208.597656 167.289062 208.035156 167.511719 C 207.140625 167.863281 207.457031 168.605469 207.550781 169.269531 C 208.652344 177.066406 209.746094 184.859375 210.84375 192.65625 C 210.957031 193.445312 211.0625 194.238281 211.183594 195.027344 C 211.246094 195.421875 211.253906 195.859375 211.441406 196.1875 C 211.605469 196.480469 211.980469 196.652344 212.261719 196.878906 C 212.476562 196.589844 212.890625 196.285156 212.871094 196.015625 C 212.746094 194.480469 212.527344 192.957031 212.320312 191.429688 C 212.019531 189.183594 211.699219 186.9375 211.347656 184.4375 C 212.121094 184.765625 212.640625 184.96875 213.144531 185.203125 C 216.769531 186.878906 220.394531 188.558594 224.019531 190.238281 C 225.777344 191.054688 227.535156 191.878906 229.304688 192.667969 C 229.773438 192.875 230.347656 193.058594 230.65625 192.441406 C 230.953125 191.839844 230.527344 191.492188 230.039062 191.238281 C 229.683594 191.054688 229.316406 190.890625 228.957031 190.722656 C 223.984375 188.425781 219.011719 186.125 214.042969 183.820312 C 213.488281 183.566406 212.953125 183.273438 212.28125 182.933594 Z M 183.875 195.886719 C 184.011719 195.191406 184.085938 194.742188 184.1875 194.300781 C 185.933594 186.796875 187.683594 179.292969 189.433594 171.785156 C 189.523438 171.398438 189.707031 170.992188 189.664062 170.617188 C 189.617188 170.230469 189.445312 169.683594 189.15625 169.53125 C 188.667969 169.273438 188.316406 169.695312 188.164062 170.175781 C 188.039062 170.554688 187.945312 170.945312 187.855469 171.335938 C 185.984375 179.398438 184.113281 187.460938 182.25 195.527344 C 181.921875 196.9375 182 197.121094 183.332031 197.476562 C 186.695312 198.375 190.070312 199.242188 193.441406 200.113281 C 193.714844 200.183594 194.03125 200.316406 194.269531 200.238281 C 194.546875 200.144531 194.851562 199.894531 194.964844 199.632812 C 195.039062 199.460938 194.863281 199.050781 194.679688 198.921875 C 194.363281 198.707031 193.960938 198.597656 193.578125 198.496094 C 191.484375 197.9375 189.382812 197.394531 187.285156 196.835938 C 186.195312 196.546875 185.109375 196.230469 183.875 195.886719 Z M 169.550781 150.625 C 169.441406 148.691406 169.378906 147.097656 169.246094 145.507812 C 169.105469 143.847656 168.683594 142.242188 167.777344 140.828125 C 166.976562 139.574219 165.867188 138.625 164.285156 138.738281 C 162.59375 138.859375 161.503906 139.90625 160.855469 141.441406 C 160.328125 142.6875 160.21875 143.992188 160.417969 145.296875 C 161.121094 149.871094 163.441406 153.464844 167.210938 156.117188 C 168.5 157.023438 169.148438 156.683594 169.289062 155.058594 C 169.429688 153.472656 169.480469 151.878906 169.550781 150.625 Z M 160.210938 191.46875 C 160.359375 191.667969 160.601562 191.996094 160.84375 192.324219 C 161.167969 192.0625 161.535156 191.839844 161.796875 191.527344 C 161.960938 191.328125 161.976562 190.996094 162.042969 190.71875 C 164.042969 182.640625 166.046875 174.5625 168.039062 166.480469 C 168.132812 166.09375 168.265625 165.683594 168.210938 165.308594 C 168.171875 165.039062 167.882812 164.65625 167.648438 164.605469 C 167.40625 164.558594 166.996094 164.789062 166.839844 165.019531 C 166.625 165.332031 166.5625 165.757812 166.46875 166.144531 C 164.46875 174.167969 162.476562 182.1875 160.488281 190.210938 C 160.402344 190.542969 160.339844 190.878906 160.210938 191.46875 Z M 181.039062 149.640625 C 181.042969 147.917969 179.75 146.8125 177.988281 147.046875 C 176.539062 147.242188 175.515625 148.132812 174.609375 149.195312 C 172.988281 151.101562 172.195312 153.433594 171.324219 155.71875 C 171.191406 156.066406 171.296875 156.625 171.503906 156.949219 C 171.8125 157.429688 172.34375 157.421875 172.878906 157.179688 C 175.332031 156.066406 177.660156 154.765625 179.554688 152.808594 C 180.402344 151.933594 181.035156 150.925781 181.039062 149.640625 Z M 109.980469 105.996094 C 110.328125 105.285156 110.554688 104.773438 110.816406 104.28125 C 118.632812 89.546875 126.472656 74.824219 134.238281 60.0625 C 134.925781 58.757812 135.683594 58.339844 137.136719 58.351562 C 165.207031 58.523438 193.277344 58.636719 221.351562 58.773438 C 232.042969 58.824219 242.734375 58.898438 253.425781 58.960938 C 253.933594 58.964844 254.441406 58.960938 254.824219 58.960938 C 254.988281 59.113281 255.039062 59.140625 255.0625 59.183594 C 255.089844 59.234375 255.089844 59.296875 255.09375 59.351562 C 255.097656 59.40625 255.097656 59.46875 255.078125 59.519531 C 254.566406 60.914062 254.066406 62.308594 253.539062 63.695312 C 248.160156 77.773438 242.773438 91.847656 237.363281 105.996094 C 194.957031 105.996094 152.609375 105.996094 109.980469 105.996094 Z M 199.070312 79.992188 C 199.0625 74.414062 195.835938 69.992188 190.527344 68.257812 C 188.789062 67.691406 187.078125 67.054688 185.335938 66.507812 C 184.46875 66.234375 183.570312 66.015625 182.671875 65.914062 C 174.898438 65.011719 168.1875 70.832031 166.800781 77.824219 C 165.769531 83.019531 167.636719 88.171875 171.863281 90.695312 C 175.152344 92.660156 178.847656 93.976562 182.59375 94.539062 C 191.164062 95.828125 199.085938 88.65625 199.070312 79.992188 Z M 140.765625 64.066406 C 140.601562 63.828125 140.488281 63.476562 140.285156 63.417969 C 140.015625 63.339844 139.582031 63.382812 139.390625 63.558594 C 139.070312 63.863281 138.867188 64.296875 138.652344 64.695312 C 132.550781 75.871094 126.457031 87.050781 120.359375 98.226562 C 120.195312 98.527344 119.933594 98.824219 119.910156 99.140625 C 119.878906 99.542969 120.042969 99.960938 120.125 100.371094 C 120.507812 100.222656 120.957031 100.152344 121.25 99.902344 C 121.535156 99.660156 121.671875 99.234375 121.863281 98.882812 C 123.855469 95.222656 125.847656 91.5625 127.84375 87.902344 C 131.914062 80.433594 135.988281 72.964844 140.058594 65.496094 C 140.300781 65.046875 140.511719 64.582031 140.765625 64.066406 Z M 239.089844 108.898438 C 239.074219 119.238281 239.050781 129.578125 239.035156 139.917969 C 238.996094 165.335938 238.960938 190.757812 238.921875 216.175781 C 238.921875 216.632812 238.871094 217.101562 238.953125 217.542969 C 239.011719 217.839844 239.199219 218.257812 239.4375 218.359375 C 241.539062 219.226562 243.542969 220.394531 245.886719 220.554688 C 250.113281 220.835938 253.976562 219.742188 257.273438 217.136719 C 260.453125 214.625 263.457031 211.890625 266.511719 209.226562 C 268.941406 207.109375 271.46875 205.167969 274.640625 204.289062 C 275.511719 204.050781 276.398438 203.863281 277.4375 203.613281 C 277.511719 168.90625 277.582031 134.222656 277.609375 99.296875 C 264.644531 101.945312 251.96875 104.535156 239.089844 107.167969 C 239.089844 107.878906 239.09375 108.390625 239.089844 108.898438 Z M 109.460938 343.058594 C 109.460938 300.664062 109.460938 258.570312 109.460938 216.246094 C 110.75 216.078125 111.910156 215.867188 113.078125 215.78125 C 117.042969 215.488281 120.800781 216.335938 124.402344 217.960938 C 128.019531 219.59375 131.308594 221.742188 134.378906 224.25 C 136.457031 225.949219 138.550781 227.636719 140.722656 229.214844 C 143.09375 230.9375 145.714844 232.175781 148.550781 232.996094 C 151.460938 233.84375 154.34375 233.816406 157.136719 232.75 C 159.09375 232.003906 161.035156 231.089844 162.789062 229.949219 C 165.421875 228.238281 167.882812 226.269531 170.410156 224.398438 C 174.015625 221.726562 177.832031 219.488281 182.234375 218.363281 C 187.945312 216.90625 193.449219 217.261719 198.6875 220.121094 C 200.941406 221.355469 203.191406 222.597656 205.417969 223.882812 C 208.058594 225.40625 210.800781 226.582031 213.824219 227.171875 C 217.242188 227.835938 220.273438 227.148438 223.097656 225.203125 C 224.648438 224.132812 226.199219 223.050781 227.832031 222.113281 C 230.648438 220.496094 233.71875 219.695312 236.871094 219.503906 C 237.011719 219.636719 237.054688 219.675781 237.09375 219.714844 C 237.132812 219.757812 237.195312 219.800781 237.199219 219.847656 C 237.238281 220.183594 237.289062 220.523438 237.289062 220.863281 C 237.230469 261.492188 237.167969 302.117188 237.101562 342.742188 C 237.101562 342.839844 237.003906 342.9375 236.9375 343.058594 C 194.492188 343.058594 152.035156 343.058594 109.460938 343.058594 Z M 165.582031 56.855469 C 169.347656 57.183594 181.734375 57.074219 182.914062 56.710938 C 182.914062 48.394531 182.914062 40.089844 182.914062 31.707031 C 177.050781 31.707031 171.300781 31.707031 165.457031 31.707031 C 165.046875 34.054688 165.179688 55.71875 165.582031 56.855469 Z M 203.667969 56.953125 C 206.578125 57.296875 219.273438 57.226562 220.546875 56.855469 C 220.546875 48.511719 220.546875 40.148438 220.546875 31.683594 C 214.890625 31.683594 209.324219 31.683594 203.667969 31.683594 C 203.667969 40.253906 203.667969 48.609375 203.667969 56.953125 Z M 255.71875 56.519531 C 255.902344 51.613281 256.132812 46.710938 256.234375 41.804688 C 256.28125 39.53125 256.257812 37.238281 255.4375 35.042969 C 254.554688 32.675781 253.261719 31.613281 250.722656 31.5625 C 247.753906 31.503906 244.785156 31.558594 241.8125 31.574219 C 241.605469 31.578125 241.398438 31.683594 241.226562 31.730469 C 240.867188 34.457031 241 56.035156 241.382812 57.242188 C 246.097656 57.242188 250.816406 57.242188 255.59375 57.242188 C 255.648438 56.949219 255.710938 56.734375 255.71875 56.519531 Z M 239.328125 105.460938 C 251.589844 102.953125 263.453125 100.53125 275.320312 98.105469 C 275.335938 97.988281 275.351562 97.875 275.367188 97.757812 C 265.816406 94.078125 256.265625 90.402344 246.503906 86.644531 C 244.09375 92.964844 241.773438 99.046875 239.328125 105.460938 Z M 140.886719 31.640625 C 137.953125 31.722656 136.367188 32.972656 135.609375 35.816406 C 135.433594 36.472656 135.34375 37.160156 135.277344 37.835938 C 134.707031 43.707031 135.0625 49.578125 135.3125 55.449219 C 135.332031 55.835938 135.445312 56.214844 135.53125 56.6875 C 138.417969 56.6875 141.242188 56.6875 144.164062 56.6875 C 144.164062 48.34375 144.164062 40.101562 144.164062 31.632812 C 142.929688 31.632812 141.90625 31.609375 140.886719 31.640625 Z M 179.566406 90.996094 C 186.269531 90.378906 191.8125 84.132812 191.460938 77.402344 C 191.171875 71.847656 187.371094 67.546875 181.140625 67.410156 C 174.222656 67.261719 168.195312 73.460938 168.160156 80.460938 C 168.003906 87.269531 173.675781 91.539062 179.566406 90.996094 Z M 277.335938 205.40625 C 277.335938 248.121094 277.335938 290.621094 277.335938 333.316406 C 264.527344 336.4375 251.792969 339.539062 238.917969 342.675781 C 238.917969 301.695312 238.917969 260.878906 238.917969 219.882812 C 239.527344 220.101562 239.964844 220.203125 240.351562 220.402344 C 246.667969 223.617188 252.578125 222.410156 258.09375 218.546875 C 260.65625 216.75 262.933594 214.542969 265.335938 212.519531 C 267.125 211.007812 268.847656 209.414062 270.707031 207.996094 C 272.589844 206.554688 274.761719 205.707031 277.335938 205.40625 Z M 163.585938 56.800781 C 163.585938 48.410156 163.585938 40.117188 163.585938 31.636719 C 157.648438 31.675781 151.816406 31.554688 145.96875 31.710938 C 145.96875 40.128906 145.96875 48.328125 145.96875 56.800781 C 151.929688 56.800781 157.71875 56.800781 163.585938 56.800781 Z M 239.511719 57.160156 C 239.511719 48.613281 239.511719 40.148438 239.507812 31.675781 C 233.625 31.675781 227.996094 31.675781 222.285156 31.675781 C 222.285156 40.167969 222.285156 48.535156 222.285156 57.160156 C 228.097656 57.160156 233.714844 57.160156 239.511719 57.160156 Z M 201.609375 31.722656 C 198.390625 31.394531 185.933594 31.546875 184.792969 31.914062 C 184.792969 40.242188 184.792969 48.554688 184.792969 56.964844 C 190.5 56.964844 196.082031 56.964844 201.765625 56.964844 C 202.109375 53.667969 201.96875 32.929688 201.609375 31.722656 Z M 247.089844 85.132812 C 256.980469 88.9375 266.636719 92.648438 276.292969 96.363281 C 276.363281 96.269531 276.433594 96.175781 276.5 96.082031 C 269.929688 84.226562 263.355469 72.371094 256.609375 60.203125 C 253.355469 68.726562 250.238281 76.886719 247.089844 85.132812 Z M 167.390625 144.222656 C 167.253906 143.558594 167.019531 142.898438 166.726562 142.289062 C 166.242188 141.292969 165.609375 140.371094 164.34375 140.367188 C 163.339844 140.367188 162.398438 141.46875 162.09375 142.855469 C 162.058594 143.023438 162.03125 143.191406 162.027344 143.363281 C 161.855469 148.003906 164.003906 151.484375 167.558594 154.289062 C 167.878906 150.867188 168.0625 147.53125 167.390625 144.222656 Z M 178.679688 151.335938 C 179.535156 150.296875 179.652344 149.40625 179.105469 148.886719 C 178.5625 148.371094 177.671875 148.503906 176.648438 149.375 C 174.949219 150.824219 174.054688 152.761719 173.460938 154.90625 C 175.457031 154.027344 177.308594 153.003906 178.679688 151.335938 Z M 190.925781 90.742188 C 191.253906 90.820312 191.738281 90.714844 192.011719 90.511719 C 193.902344 89.097656 195.382812 87.351562 196.355469 85.03125 C 194.871094 84.441406 193.515625 83.90625 192.328125 83.433594 C 190.710938 85.574219 189.191406 87.589844 187.574219 89.734375 C 188.671875 90.074219 189.789062 90.457031 190.925781 90.742188 Z M 197.386719 78.925781 C 197.363281 78.597656 197.09375 78.128906 196.816406 78.003906 C 195.644531 77.488281 194.425781 77.078125 193.164062 76.609375 C 192.996094 78.488281 192.847656 80.160156 192.6875 81.964844 C 194.011719 82.472656 195.367188 82.992188 196.847656 83.558594 C 197.492188 81.867188 197.5 80.394531 197.386719 78.925781 Z M 196.699219 75.882812 C 195.5625 73.121094 193.648438 71.175781 190.667969 70.0625 C 191.359375 71.574219 191.917969 72.878906 192.554688 74.144531 C 192.738281 74.511719 193.089844 74.890625 193.460938 75.058594 C 194.429688 75.492188 195.453125 75.816406 196.457031 76.183594 C 196.539062 76.085938 196.617188 75.984375 196.699219 75.882812 Z M 186.195312 90.859375 C 185.90625 90.769531 185.523438 90.804688 185.238281 90.917969 C 183.929688 91.429688 182.636719 91.988281 181.101562 92.628906 C 183.953125 93.40625 186.515625 93.230469 189.039062 91.847656 C 188.09375 91.511719 187.15625 91.148438 186.195312 90.859375 Z M 107.976562 224.921875 C 107.976562 201.035156 107.96875 177.148438 107.976562 153.265625 C 107.984375 139.039062 108.011719 124.808594 108.027344 110.582031 C 108.027344 110.238281 108.082031 109.886719 108.019531 109.554688 C 107.5625 107.160156 108.457031 105.152344 109.566406 103.085938 C 117.4375 88.378906 125.226562 73.632812 133.066406 58.910156 C 133.648438 57.820312 133.964844 56.777344 133.867188 55.507812 C 133.429688 49.75 133.179688 43.988281 133.605469 38.21875 C 133.734375 36.496094 134.019531 34.824219 134.882812 33.285156 C 135.839844 31.582031 137.21875 30.457031 139.179688 30.234375 C 140.761719 30.058594 142.367188 29.960938 143.960938 29.960938 C 163.171875 29.945312 182.382812 29.964844 201.589844 29.949219 C 217.484375 29.941406 233.378906 29.894531 249.273438 29.890625 C 250.460938 29.890625 251.660156 30.0625 252.835938 30.261719 C 254.542969 30.550781 255.683594 31.605469 256.429688 33.140625 C 257.238281 34.8125 257.742188 36.585938 257.730469 38.425781 C 257.699219 43.164062 257.714844 47.910156 257.410156 52.636719 C 257.179688 56.230469 257.847656 59.351562 259.683594 62.539062 C 265.894531 73.332031 271.796875 84.300781 277.878906 95.164062 C 278.832031 96.863281 279.304688 98.523438 279.277344 100.5 C 279.148438 109.011719 279.171875 117.527344 279.152344 126.042969 C 279.128906 136.84375 279.113281 147.640625 279.101562 158.441406 C 279.0625 192.382812 279.023438 226.324219 278.992188 260.265625 C 278.96875 284.039062 278.957031 307.808594 278.9375 331.578125 C 278.933594 335.320312 278.976562 334.617188 275.964844 335.347656 C 263.917969 338.257812 251.871094 341.164062 239.84375 344.144531 C 238.101562 344.574219 236.390625 344.785156 234.609375 344.78125 C 195.101562 344.726562 155.59375 344.6875 116.085938 344.644531 C 114.027344 344.640625 111.96875 344.6875 109.914062 344.636719 C 107.800781 344.585938 107.738281 344.488281 107.742188 342.34375 C 107.765625 324.402344 107.804688 306.460938 107.8125 288.519531 C 107.828125 267.320312 107.816406 246.121094 107.816406 224.921875 C 107.871094 224.921875 107.921875 224.921875 107.976562 224.921875 Z M 109.460938 343.058594 C 152.035156 343.058594 194.492188 343.058594 236.9375 343.058594 C 237.003906 342.9375 237.101562 342.839844 237.101562 342.742188 C 237.167969 302.117188 237.230469 261.492188 237.289062 220.863281 C 237.289062 220.523438 237.238281 220.183594 237.199219 219.847656 C 237.195312 219.800781 237.132812 219.757812 237.09375 219.714844 C 237.054688 219.675781 237.011719 219.636719 236.871094 219.503906 C 233.71875 219.695312 230.648438 220.496094 227.832031 222.113281 C 226.199219 223.050781 224.648438 224.132812 223.097656 225.203125 C 220.273438 227.148438 217.242188 227.835938 213.824219 227.171875 C 210.800781 226.582031 208.058594 225.40625 205.417969 223.882812 C 203.191406 222.597656 200.941406 221.355469 198.6875 220.121094 C 193.449219 217.261719 187.945312 216.90625 182.234375 218.363281 C 177.832031 219.488281 174.015625 221.726562 170.410156 224.398438 C 167.882812 226.269531 165.421875 228.238281 162.789062 229.949219 C 161.035156 231.089844 159.09375 232.003906 157.136719 232.75 C 154.34375 233.816406 151.460938 233.84375 148.550781 232.996094 C 145.714844 232.175781 143.09375 230.9375 140.722656 229.214844 C 138.550781 227.636719 136.457031 225.949219 134.378906 224.25 C 131.308594 221.742188 128.019531 219.59375 124.402344 217.960938 C 120.800781 216.335938 117.042969 215.488281 113.078125 215.78125 C 111.910156 215.867188 110.75 216.078125 109.460938 216.246094 C 109.460938 258.570312 109.460938 300.664062 109.460938 343.058594 Z M 237.304688 217.753906 C 237.34375 181.011719 237.460938 144.417969 237.464844 107.847656 C 233.738281 107.480469 111.277344 107.546875 109.851562 107.890625 C 109.488281 109.605469 109.425781 213.105469 109.808594 214.484375 C 110.527344 214.410156 111.265625 214.339844 112 214.253906 C 114.460938 213.96875 116.910156 214.078125 119.332031 214.605469 C 124.871094 215.804688 129.652344 218.542969 134.082031 221.957031 C 136.03125 223.457031 137.894531 225.058594 139.828125 226.578125 C 141.902344 228.207031 144.144531 229.554688 146.570312 230.621094 C 150.835938 232.492188 155.015625 232.332031 159.132812 230.21875 C 160.195312 229.675781 161.257812 229.089844 162.230469 228.402344 C 164.472656 226.820312 166.6875 225.203125 168.859375 223.527344 C 171.542969 221.460938 174.363281 219.597656 177.484375 218.296875 C 184.851562 215.222656 192.21875 214.816406 199.476562 218.699219 C 201.589844 219.828125 203.640625 221.082031 205.777344 222.171875 C 207.859375 223.226562 209.949219 224.316406 212.140625 225.082031 C 216.003906 226.429688 219.6875 226.007812 222.953125 223.320312 C 223.347656 222.992188 223.789062 222.722656 224.210938 222.425781 C 227.046875 220.429688 230.125 218.96875 233.546875 218.3125 C 234.71875 218.085938 235.910156 217.957031 237.304688 217.753906 Z M 109.980469 105.996094 C 152.609375 105.996094 194.957031 105.996094 237.363281 105.996094 C 242.773438 91.847656 248.160156 77.773438 253.539062 63.695312 C 254.066406 62.308594 254.566406 60.914062 255.078125 59.519531 C 255.097656 59.46875 255.097656 59.40625 255.09375 59.351562 C 255.089844 59.296875 255.089844 59.234375 255.0625 59.183594 C 255.039062 59.140625 254.988281 59.113281 254.824219 58.960938 C 254.441406 58.960938 253.933594 58.964844 253.425781 58.960938 C 242.734375 58.898438 232.042969 58.824219 221.351562 58.773438 C 193.277344 58.636719 165.207031 58.523438 137.136719 58.351562 C 135.683594 58.339844 134.925781 58.757812 134.238281 60.0625 C 126.472656 74.824219 118.632812 89.546875 110.816406 104.28125 C 110.554688 104.773438 110.328125 105.285156 109.980469 105.996094 Z M 277.335938 205.40625 C 274.761719 205.707031 272.589844 206.554688 270.707031 207.996094 C 268.847656 209.414062 267.125 211.007812 265.335938 212.519531 C 262.933594 214.542969 260.65625 216.75 258.09375 218.546875 C 252.578125 222.410156 246.667969 223.617188 240.351562 220.402344 C 239.964844 220.203125 239.527344 220.101562 238.917969 219.882812 C 238.917969 260.878906 238.917969 301.695312 238.917969 342.675781 C 251.792969 339.539062 264.527344 336.4375 277.335938 333.316406 C 277.335938 290.621094 277.335938 248.121094 277.335938 205.40625 Z M 239.089844 107.167969 C 239.089844 107.878906 239.09375 108.390625 239.089844 108.898438 C 239.074219 119.238281 239.050781 129.578125 239.035156 139.917969 C 238.996094 165.335938 238.960938 190.757812 238.921875 216.175781 C 238.921875 216.632812 238.871094 217.101562 238.953125 217.542969 C 239.011719 217.839844 239.199219 218.257812 239.4375 218.359375 C 241.539062 219.226562 243.542969 220.394531 245.886719 220.554688 C 250.113281 220.835938 253.976562 219.742188 257.273438 217.136719 C 260.453125 214.625 263.457031 211.890625 266.511719 209.226562 C 268.941406 207.109375 271.46875 205.167969 274.640625 204.289062 C 275.511719 204.050781 276.398438 203.863281 277.4375 203.613281 C 277.511719 168.90625 277.582031 134.222656 277.609375 99.296875 C 264.644531 101.945312 251.96875 104.535156 239.089844 107.167969 Z M 165.457031 31.707031 C 165.046875 34.054688 165.179688 55.71875 165.582031 56.855469 C 169.347656 57.183594 181.734375 57.074219 182.914062 56.710938 C 182.914062 48.394531 182.914062 40.089844 182.914062 31.707031 C 177.050781 31.707031 171.300781 31.707031 165.457031 31.707031 Z M 145.96875 56.800781 C 151.929688 56.800781 157.71875 56.800781 163.585938 56.800781 C 163.585938 48.410156 163.585938 40.117188 163.585938 31.636719 C 157.648438 31.675781 151.816406 31.554688 145.96875 31.710938 C 145.96875 40.128906 145.96875 48.328125 145.96875 56.800781 Z M 222.285156 57.160156 C 228.097656 57.160156 233.714844 57.160156 239.511719 57.160156 C 239.511719 48.613281 239.511719 40.148438 239.507812 31.675781 C 233.625 31.675781 227.996094 31.675781 222.285156 31.675781 C 222.285156 40.167969 222.285156 48.535156 222.285156 57.160156 Z M 201.765625 56.964844 C 202.109375 53.667969 201.96875 32.929688 201.609375 31.722656 C 198.390625 31.394531 185.933594 31.546875 184.792969 31.914062 C 184.792969 40.242188 184.792969 48.554688 184.792969 56.964844 C 190.5 56.964844 196.082031 56.964844 201.765625 56.964844 Z M 203.667969 31.683594 C 203.667969 40.253906 203.667969 48.609375 203.667969 56.953125 C 206.578125 57.296875 219.273438 57.226562 220.546875 56.855469 C 220.546875 48.511719 220.546875 40.148438 220.546875 31.683594 C 214.890625 31.683594 209.324219 31.683594 203.667969 31.683594 Z M 256.609375 60.203125 C 253.355469 68.726562 250.238281 76.886719 247.089844 85.132812 C 256.980469 88.9375 266.636719 92.648438 276.292969 96.363281 C 276.363281 96.269531 276.433594 96.175781 276.5 96.082031 C 269.929688 84.226562 263.355469 72.371094 256.609375 60.203125 Z M 255.59375 57.242188 C 255.648438 56.949219 255.710938 56.734375 255.71875 56.519531 C 255.902344 51.613281 256.132812 46.710938 256.234375 41.804688 C 256.28125 39.53125 256.257812 37.238281 255.4375 35.042969 C 254.554688 32.675781 253.261719 31.613281 250.722656 31.5625 C 247.753906 31.503906 244.785156 31.558594 241.8125 31.574219 C 241.605469 31.578125 241.398438 31.683594 241.226562 31.730469 C 240.867188 34.457031 241 56.035156 241.382812 57.242188 C 246.097656 57.242188 250.816406 57.242188 255.59375 57.242188 Z M 246.503906 86.644531 C 244.09375 92.964844 241.773438 99.046875 239.328125 105.460938 C 251.589844 102.953125 263.453125 100.53125 275.320312 98.105469 C 275.335938 97.988281 275.351562 97.875 275.367188 97.757812 C 265.816406 94.078125 256.265625 90.402344 246.503906 86.644531 Z M 144.164062 31.632812 C 142.929688 31.632812 141.90625 31.609375 140.886719 31.640625 C 137.953125 31.722656 136.367188 32.972656 135.609375 35.816406 C 135.433594 36.472656 135.34375 37.160156 135.277344 37.835938 C 134.707031 43.707031 135.0625 49.578125 135.3125 55.449219 C 135.332031 55.835938 135.445312 56.214844 135.53125 56.6875 C 138.417969 56.6875 141.242188 56.6875 144.164062 56.6875 C 144.164062 48.34375 144.164062 40.101562 144.164062 31.632812 Z M 120.972656 172.558594 C 121.414062 173.195312 121.859375 173.828125 122.296875 174.464844 C 125.917969 179.742188 129.539062 185.023438 133.160156 190.296875 C 133.515625 190.8125 133.878906 191.53125 134.585938 191.273438 C 135.015625 191.117188 135.28125 190.476562 135.589844 190.03125 C 135.710938 189.847656 135.742188 189.601562 135.816406 189.386719 C 137.671875 184.046875 139.527344 178.703125 141.386719 173.363281 C 141.5625 172.851562 141.769531 172.347656 141.964844 171.839844 C 142.464844 173.433594 142.648438 174.996094 142.820312 176.558594 C 143.472656 182.632812 144.125 188.710938 144.78125 194.785156 C 144.824219 195.179688 144.816406 195.636719 145.019531 195.9375 C 145.207031 196.214844 145.664062 196.492188 145.96875 196.457031 C 146.226562 196.429688 146.558594 195.988281 146.632812 195.675781 C 146.734375 195.25 146.644531 194.769531 146.59375 194.316406 C 145.605469 185.515625 144.617188 176.71875 143.625 167.921875 C 143.585938 167.582031 143.605469 167.203125 143.453125 166.917969 C 143.316406 166.660156 142.992188 166.367188 142.730469 166.34375 C 142.460938 166.320312 142.078125 166.542969 141.90625 166.777344 C 141.679688 167.085938 141.609375 167.507812 141.476562 167.886719 C 139.269531 174.195312 137.0625 180.503906 134.851562 186.808594 C 134.652344 187.375 134.417969 187.929688 134.125 188.6875 C 133.636719 188.046875 133.28125 187.613281 132.960938 187.152344 C 129.007812 181.476562 125.0625 175.796875 121.113281 170.121094 C 120.820312 169.703125 120.542969 169.246094 120.164062 168.914062 C 119.605469 168.425781 118.851562 168.742188 118.804688 169.480469 C 118.765625 170.042969 118.867188 170.621094 118.945312 171.183594 C 119.9375 178.3125 120.941406 185.441406 121.941406 192.566406 C 122.179688 194.265625 122.40625 195.964844 122.675781 197.65625 C 122.761719 198.207031 123.105469 198.714844 123.707031 198.492188 C 123.988281 198.386719 124.109375 197.800781 124.257812 197.414062 C 124.308594 197.273438 124.226562 197.078125 124.203125 196.910156 C 123.488281 192.046875 122.773438 187.1875 122.0625 182.328125 C 121.59375 179.121094 121.136719 175.914062 120.675781 172.707031 C 120.773438 172.660156 120.875 172.609375 120.972656 172.558594 Z M 213.339844 181.472656 C 216.480469 177.550781 219.628906 173.636719 222.769531 169.714844 C 223.089844 169.3125 223.449219 168.917969 223.648438 168.460938 C 223.753906 168.226562 223.644531 167.726562 223.457031 167.578125 C 223.253906 167.421875 222.761719 167.421875 222.535156 167.570312 C 222.167969 167.808594 221.898438 168.210938 221.613281 168.566406 C 218.503906 172.4375 215.398438 176.3125 212.285156 180.183594 C 211.941406 180.609375 211.570312 181.011719 211.03125 181.636719 C 210.898438 181.050781 210.804688 180.746094 210.761719 180.433594 C 210.210938 176.652344 209.675781 172.867188 209.121094 169.085938 C 208.929688 167.769531 208.597656 167.289062 208.035156 167.511719 C 207.140625 167.863281 207.457031 168.605469 207.550781 169.269531 C 208.652344 177.066406 209.746094 184.859375 210.84375 192.65625 C 210.957031 193.445312 211.0625 194.238281 211.183594 195.027344 C 211.246094 195.421875 211.253906 195.859375 211.441406 196.1875 C 211.605469 196.480469 211.980469 196.652344 212.261719 196.878906 C 212.476562 196.589844 212.890625 196.285156 212.871094 196.015625 C 212.746094 194.480469 212.527344 192.957031 212.320312 191.429688 C 212.019531 189.183594 211.699219 186.9375 211.347656 184.4375 C 212.121094 184.765625 212.640625 184.96875 213.144531 185.203125 C 216.769531 186.878906 220.394531 188.558594 224.019531 190.238281 C 225.777344 191.054688 227.535156 191.878906 229.304688 192.667969 C 229.773438 192.875 230.347656 193.058594 230.65625 192.441406 C 230.953125 191.839844 230.527344 191.492188 230.039062 191.238281 C 229.683594 191.054688 229.316406 190.890625 228.957031 190.722656 C 223.984375 188.425781 219.011719 186.125 214.042969 183.820312 C 213.488281 183.566406 212.953125 183.273438 212.28125 182.933594 C 212.6875 182.371094 212.996094 181.90625 213.339844 181.472656 Z M 184.1875 194.300781 C 185.933594 186.796875 187.683594 179.292969 189.433594 171.785156 C 189.523438 171.398438 189.707031 170.992188 189.664062 170.617188 C 189.617188 170.230469 189.445312 169.683594 189.15625 169.53125 C 188.667969 169.273438 188.316406 169.695312 188.164062 170.175781 C 188.039062 170.554688 187.945312 170.945312 187.855469 171.335938 C 185.984375 179.398438 184.113281 187.460938 182.25 195.527344 C 181.921875 196.9375 182 197.121094 183.332031 197.476562 C 186.695312 198.375 190.070312 199.242188 193.441406 200.113281 C 193.714844 200.183594 194.03125 200.316406 194.269531 200.238281 C 194.546875 200.144531 194.851562 199.894531 194.964844 199.632812 C 195.039062 199.460938 194.863281 199.050781 194.679688 198.921875 C 194.363281 198.707031 193.960938 198.597656 193.578125 198.496094 C 191.484375 197.9375 189.382812 197.394531 187.285156 196.835938 C 186.195312 196.546875 185.109375 196.230469 183.875 195.886719 C 184.011719 195.191406 184.085938 194.742188 184.1875 194.300781 Z M 169.550781 150.625 C 169.480469 151.878906 169.429688 153.472656 169.289062 155.058594 C 169.148438 156.683594 168.5 157.023438 167.210938 156.117188 C 163.441406 153.464844 161.121094 149.871094 160.417969 145.296875 C 160.21875 143.992188 160.328125 142.6875 160.855469 141.441406 C 161.503906 139.90625 162.59375 138.859375 164.285156 138.738281 C 165.867188 138.625 166.976562 139.574219 167.777344 140.828125 C 168.683594 142.242188 169.105469 143.847656 169.246094 145.507812 C 169.378906 147.097656 169.441406 148.691406 169.550781 150.625 Z M 167.558594 154.289062 C 167.878906 150.867188 168.0625 147.53125 167.390625 144.222656 C 167.253906 143.558594 167.019531 142.898438 166.726562 142.289062 C 166.242188 141.292969 165.609375 140.371094 164.34375 140.367188 C 163.339844 140.367188 162.398438 141.46875 162.09375 142.855469 C 162.058594 143.023438 162.03125 143.191406 162.027344 143.363281 C 161.855469 148.003906 164.003906 151.484375 167.558594 154.289062 Z M 160.84375 192.324219 C 161.167969 192.0625 161.535156 191.839844 161.796875 191.527344 C 161.960938 191.328125 161.976562 190.996094 162.042969 190.71875 C 164.042969 182.640625 166.046875 174.5625 168.039062 166.480469 C 168.132812 166.09375 168.265625 165.683594 168.210938 165.308594 C 168.171875 165.039062 167.882812 164.65625 167.648438 164.605469 C 167.40625 164.558594 166.996094 164.789062 166.839844 165.019531 C 166.625 165.332031 166.5625 165.757812 166.46875 166.144531 C 164.46875 174.167969 162.476562 182.1875 160.488281 190.210938 C 160.402344 190.542969 160.339844 190.878906 160.210938 191.46875 C 160.359375 191.667969 160.601562 191.996094 160.84375 192.324219 Z M 181.039062 149.640625 C 181.035156 150.925781 180.402344 151.933594 179.554688 152.808594 C 177.660156 154.765625 175.332031 156.066406 172.878906 157.179688 C 172.34375 157.421875 171.8125 157.429688 171.503906 156.949219 C 171.296875 156.625 171.191406 156.066406 171.324219 155.71875 C 172.195312 153.433594 172.988281 151.101562 174.609375 149.195312 C 175.515625 148.132812 176.539062 147.242188 177.988281 147.046875 C 179.75 146.8125 181.042969 147.917969 181.039062 149.640625 Z M 173.460938 154.90625 C 175.457031 154.027344 177.308594 153.003906 178.679688 151.335938 C 179.535156 150.296875 179.652344 149.40625 179.105469 148.886719 C 178.5625 148.371094 177.671875 148.503906 176.648438 149.375 C 174.949219 150.824219 174.054688 152.761719 173.460938 154.90625 Z M 199.070312 79.992188 C 199.085938 88.65625 191.164062 95.828125 182.59375 94.539062 C 178.847656 93.976562 175.152344 92.660156 171.863281 90.695312 C 167.636719 88.171875 165.769531 83.019531 166.800781 77.824219 C 168.1875 70.832031 174.898438 65.011719 182.671875 65.914062 C 183.570312 66.015625 184.46875 66.234375 185.335938 66.507812 C 187.078125 67.054688 188.789062 67.691406 190.527344 68.257812 C 195.835938 69.992188 199.0625 74.414062 199.070312 79.992188 Z M 168.160156 80.460938 C 168.003906 87.269531 173.675781 91.539062 179.566406 90.996094 C 186.269531 90.378906 191.8125 84.132812 191.460938 77.402344 C 191.171875 71.847656 187.371094 67.546875 181.140625 67.410156 C 174.222656 67.261719 168.195312 73.460938 168.160156 80.460938 Z M 187.574219 89.734375 C 188.671875 90.074219 189.789062 90.457031 190.925781 90.742188 C 191.253906 90.820312 191.738281 90.714844 192.011719 90.511719 C 193.902344 89.097656 195.382812 87.351562 196.355469 85.03125 C 194.871094 84.441406 193.515625 83.90625 192.328125 83.433594 C 190.710938 85.574219 189.191406 87.589844 187.574219 89.734375 Z M 196.847656 83.558594 C 197.492188 81.867188 197.5 80.394531 197.386719 78.925781 C 197.363281 78.597656 197.09375 78.128906 196.816406 78.003906 C 195.644531 77.488281 194.425781 77.078125 193.164062 76.609375 C 192.996094 78.488281 192.847656 80.160156 192.6875 81.964844 C 194.011719 82.472656 195.367188 82.992188 196.847656 83.558594 Z M 196.457031 76.183594 C 196.539062 76.085938 196.617188 75.984375 196.699219 75.882812 C 195.5625 73.121094 193.648438 71.175781 190.667969 70.0625 C 191.359375 71.574219 191.917969 72.878906 192.554688 74.144531 C 192.738281 74.511719 193.089844 74.890625 193.460938 75.058594 C 194.429688 75.492188 195.453125 75.816406 196.457031 76.183594 Z M 189.039062 91.847656 C 188.09375 91.511719 187.15625 91.148438 186.195312 90.859375 C 185.90625 90.769531 185.523438 90.804688 185.238281 90.917969 C 183.929688 91.429688 182.636719 91.988281 181.101562 92.628906 C 183.953125 93.40625 186.515625 93.230469 189.039062 91.847656 Z M 140.285156 63.417969 C 140.015625 63.339844 139.582031 63.382812 139.390625 63.558594 C 139.070312 63.863281 138.867188 64.296875 138.652344 64.695312 C 132.550781 75.871094 126.457031 87.050781 120.359375 98.226562 C 120.195312 98.527344 119.933594 98.824219 119.910156 99.140625 C 119.878906 99.542969 120.042969 99.960938 120.125 100.371094 C 120.507812 100.222656 120.957031 100.152344 121.25 99.902344 C 121.535156 99.660156 121.671875 99.234375 121.863281 98.882812 C 123.855469 95.222656 125.847656 91.5625 127.84375 87.902344 C 131.914062 80.433594 135.988281 72.964844 140.058594 65.496094 C 140.300781 65.046875 140.511719 64.582031 140.765625 64.066406 C 140.601562 63.828125 140.488281 63.476562 140.285156 63.417969 Z M 140.285156 63.417969 " fill-opacity="1" fill-rule="nonzero"/></g><path fill="#ffffff" d="M 237.304688 217.753906 C 235.910156 217.957031 234.71875 218.085938 233.546875 218.3125 C 230.125 218.96875 227.046875 220.429688 224.210938 222.425781 C 223.789062 222.722656 223.347656 222.992188 222.953125 223.320312 C 219.6875 226.007812 216.003906 226.429688 212.140625 225.082031 C 209.949219 224.316406 207.859375 223.226562 205.777344 222.171875 C 203.640625 221.082031 201.589844 219.828125 199.476562 218.699219 C 192.21875 214.816406 184.851562 215.222656 177.484375 218.296875 C 174.363281 219.597656 171.542969 221.460938 168.859375 223.527344 C 166.6875 225.203125 164.472656 226.820312 162.230469 228.402344 C 161.257812 229.089844 160.195312 229.675781 159.132812 230.21875 C 155.015625 232.332031 150.835938 232.492188 146.570312 230.621094 C 144.144531 229.554688 141.902344 228.207031 139.828125 226.578125 C 137.894531 225.058594 136.03125 223.457031 134.082031 221.957031 C 129.652344 218.542969 124.871094 215.804688 119.332031 214.605469 C 116.910156 214.078125 114.460938 213.96875 112 214.253906 C 111.265625 214.339844 110.527344 214.410156 109.808594 214.484375 C 109.425781 213.105469 109.488281 109.605469 109.851562 107.890625 C 111.277344 107.546875 233.738281 107.480469 237.464844 107.847656 C 237.460938 144.417969 237.34375 181.011719 237.304688 217.753906 Z M 120.675781 172.707031 C 120.773438 172.660156 120.875 172.609375 120.972656 172.558594 C 121.414062 173.195312 121.859375 173.828125 122.296875 174.464844 C 125.917969 179.742188 129.539062 185.023438 133.160156 190.296875 C 133.515625 190.8125 133.878906 191.53125 134.585938 191.273438 C 135.015625 191.117188 135.28125 190.476562 135.589844 190.03125 C 135.710938 189.847656 135.742188 189.601562 135.816406 189.386719 C 137.671875 184.046875 139.527344 178.703125 141.386719 173.363281 C 141.5625 172.851562 141.769531 172.347656 141.964844 171.839844 C 142.464844 173.433594 142.648438 174.996094 142.820312 176.558594 C 143.472656 182.632812 144.125 188.710938 144.78125 194.785156 C 144.824219 195.179688 144.816406 195.636719 145.019531 195.9375 C 145.207031 196.214844 145.664062 196.492188 145.96875 196.457031 C 146.226562 196.429688 146.558594 195.988281 146.632812 195.675781 C 146.734375 195.25 146.644531 194.769531 146.59375 194.316406 C 145.605469 185.515625 144.617188 176.71875 143.625 167.921875 C 143.585938 167.582031 143.605469 167.203125 143.453125 166.917969 C 143.316406 166.660156 142.992188 166.367188 142.730469 166.34375 C 142.460938 166.320312 142.078125 166.542969 141.90625 166.777344 C 141.679688 167.085938 141.609375 167.507812 141.476562 167.886719 C 139.269531 174.195312 137.0625 180.503906 134.851562 186.808594 C 134.652344 187.375 134.417969 187.929688 134.125 188.6875 C 133.636719 188.046875 133.28125 187.613281 132.960938 187.152344 C 129.007812 181.476562 125.0625 175.796875 121.113281 170.121094 C 120.820312 169.703125 120.542969 169.246094 120.164062 168.914062 C 119.605469 168.425781 118.851562 168.742188 118.804688 169.480469 C 118.765625 170.042969 118.867188 170.621094 118.945312 171.183594 C 119.9375 178.3125 120.941406 185.441406 121.941406 192.566406 C 122.179688 194.265625 122.40625 195.964844 122.675781 197.65625 C 122.761719 198.207031 123.105469 198.714844 123.707031 198.492188 C 123.988281 198.386719 124.109375 197.800781 124.257812 197.414062 C 124.308594 197.273438 124.226562 197.078125 124.203125 196.910156 C 123.488281 192.046875 122.773438 187.1875 122.0625 182.328125 C 121.59375 179.121094 121.136719 175.914062 120.675781 172.707031 Z M 212.28125 182.933594 C 212.6875 182.371094 212.996094 181.90625 213.339844 181.472656 C 216.480469 177.550781 219.628906 173.636719 222.769531 169.714844 C 223.089844 169.3125 223.449219 168.917969 223.648438 168.460938 C 223.753906 168.226562 223.644531 167.726562 223.457031 167.578125 C 223.253906 167.421875 222.761719 167.421875 222.535156 167.570312 C 222.167969 167.808594 221.898438 168.210938 221.613281 168.566406 C 218.503906 172.4375 215.398438 176.3125 212.285156 180.183594 C 211.941406 180.609375 211.570312 181.011719 211.03125 181.636719 C 210.898438 181.050781 210.804688 180.746094 210.761719 180.433594 C 210.210938 176.652344 209.675781 172.867188 209.121094 169.085938 C 208.929688 167.769531 208.597656 167.289062 208.035156 167.511719 C 207.140625 167.863281 207.457031 168.605469 207.550781 169.269531 C 208.652344 177.066406 209.746094 184.859375 210.84375 192.65625 C 210.957031 193.445312 211.0625 194.238281 211.183594 195.027344 C 211.246094 195.421875 211.253906 195.859375 211.441406 196.1875 C 211.605469 196.480469 211.980469 196.652344 212.261719 196.878906 C 212.476562 196.589844 212.890625 196.285156 212.871094 196.015625 C 212.746094 194.480469 212.527344 192.957031 212.320312 191.429688 C 212.019531 189.183594 211.699219 186.9375 211.347656 184.4375 C 212.121094 184.765625 212.640625 184.96875 213.144531 185.203125 C 216.769531 186.878906 220.394531 188.558594 224.019531 190.238281 C 225.777344 191.054688 227.535156 191.878906 229.304688 192.667969 C 229.773438 192.875 230.347656 193.058594 230.65625 192.441406 C 230.953125 191.839844 230.527344 191.492188 230.039062 191.238281 C 229.683594 191.054688 229.316406 190.890625 228.957031 190.722656 C 223.984375 188.425781 219.011719 186.125 214.042969 183.820312 C 213.488281 183.566406 212.953125 183.273438 212.28125 182.933594 Z M 183.875 195.886719 C 184.011719 195.191406 184.085938 194.742188 184.1875 194.300781 C 185.933594 186.796875 187.683594 179.292969 189.433594 171.785156 C 189.523438 171.398438 189.707031 170.992188 189.664062 170.617188 C 189.617188 170.230469 189.445312 169.683594 189.15625 169.53125 C 188.667969 169.273438 188.316406 169.695312 188.164062 170.175781 C 188.039062 170.554688 187.945312 170.945312 187.855469 171.335938 C 185.984375 179.398438 184.113281 187.460938 182.25 195.527344 C 181.921875 196.9375 182 197.121094 183.332031 197.476562 C 186.695312 198.375 190.070312 199.242188 193.441406 200.113281 C 193.714844 200.183594 194.03125 200.316406 194.269531 200.238281 C 194.546875 200.144531 194.851562 199.894531 194.964844 199.632812 C 195.039062 199.460938 194.863281 199.050781 194.679688 198.921875 C 194.363281 198.707031 193.960938 198.597656 193.578125 198.496094 C 191.484375 197.9375 189.382812 197.394531 187.285156 196.835938 C 186.195312 196.546875 185.109375 196.230469 183.875 195.886719 Z M 169.550781 150.625 C 169.441406 148.691406 169.378906 147.097656 169.246094 145.507812 C 169.105469 143.847656 168.683594 142.242188 167.777344 140.828125 C 166.976562 139.574219 165.867188 138.625 164.285156 138.738281 C 162.59375 138.859375 161.503906 139.90625 160.855469 141.441406 C 160.328125 142.6875 160.21875 143.992188 160.417969 145.296875 C 161.121094 149.871094 163.441406 153.464844 167.210938 156.117188 C 168.5 157.023438 169.148438 156.683594 169.289062 155.058594 C 169.429688 153.472656 169.480469 151.878906 169.550781 150.625 Z M 160.210938 191.46875 C 160.359375 191.667969 160.601562 191.996094 160.84375 192.324219 C 161.167969 192.0625 161.535156 191.839844 161.796875 191.527344 C 161.960938 191.328125 161.976562 190.996094 162.042969 190.71875 C 164.042969 182.640625 166.046875 174.5625 168.039062 166.480469 C 168.132812 166.09375 168.265625 165.683594 168.210938 165.308594 C 168.171875 165.039062 167.882812 164.65625 167.648438 164.605469 C 167.40625 164.558594 166.996094 164.789062 166.839844 165.019531 C 166.625 165.332031 166.5625 165.757812 166.46875 166.144531 C 164.46875 174.167969 162.476562 182.1875 160.488281 190.210938 C 160.402344 190.542969 160.339844 190.878906 160.210938 191.46875 Z M 181.039062 149.640625 C 181.042969 147.917969 179.75 146.8125 177.988281 147.046875 C 176.539062 147.242188 175.515625 148.132812 174.609375 149.195312 C 172.988281 151.101562 172.195312 153.433594 171.324219 155.71875 C 171.191406 156.066406 171.296875 156.625 171.503906 156.949219 C 171.8125 157.429688 172.34375 157.421875 172.878906 157.179688 C 175.332031 156.066406 177.660156 154.765625 179.554688 152.808594 C 180.402344 151.933594 181.035156 150.925781 181.039062 149.640625 Z M 109.980469 105.996094 C 110.328125 105.285156 110.554688 104.773438 110.816406 104.28125 C 118.632812 89.546875 126.472656 74.824219 134.238281 60.0625 C 134.925781 58.757812 135.683594 58.339844 137.136719 58.351562 C 165.207031 58.523438 193.277344 58.636719 221.351562 58.773438 C 232.042969 58.824219 242.734375 58.898438 253.425781 58.960938 C 253.933594 58.964844 254.441406 58.960938 254.824219 58.960938 C 254.988281 59.113281 255.039062 59.140625 255.0625 59.183594 C 255.089844 59.234375 255.089844 59.296875 255.09375 59.351562 C 255.097656 59.40625 255.097656 59.46875 255.078125 59.519531 C 254.566406 60.914062 254.066406 62.308594 253.539062 63.695312 C 248.160156 77.773438 242.773438 91.847656 237.363281 105.996094 C 194.957031 105.996094 152.609375 105.996094 109.980469 105.996094 Z M 199.070312 79.992188 C 199.0625 74.414062 195.835938 69.992188 190.527344 68.257812 C 188.789062 67.691406 187.078125 67.054688 185.335938 66.507812 C 184.46875 66.234375 183.570312 66.015625 182.671875 65.914062 C 174.898438 65.011719 168.1875 70.832031 166.800781 77.824219 C 165.769531 83.019531 167.636719 88.171875 171.863281 90.695312 C 175.152344 92.660156 178.847656 93.976562 182.59375 94.539062 C 191.164062 95.828125 199.085938 88.65625 199.070312 79.992188 Z M 140.765625 64.066406 C 140.601562 63.828125 140.488281 63.476562 140.285156 63.417969 C 140.015625 63.339844 139.582031 63.382812 139.390625 63.558594 C 139.070312 63.863281 138.867188 64.296875 138.652344 64.695312 C 132.550781 75.871094 126.457031 87.050781 120.359375 98.226562 C 120.195312 98.527344 119.933594 98.824219 119.910156 99.140625 C 119.878906 99.542969 120.042969 99.960938 120.125 100.371094 C 120.507812 100.222656 120.957031 100.152344 121.25 99.902344 C 121.535156 99.660156 121.671875 99.234375 121.863281 98.882812 C 123.855469 95.222656 125.847656 91.5625 127.84375 87.902344 C 131.914062 80.433594 135.988281 72.964844 140.058594 65.496094 C 140.300781 65.046875 140.511719 64.582031 140.765625 64.066406 Z M 239.089844 108.898438 C 239.074219 119.238281 239.050781 129.578125 239.035156 139.917969 C 238.996094 165.335938 238.960938 190.757812 238.921875 216.175781 C 238.921875 216.632812 238.871094 217.101562 238.953125 217.542969 C 239.011719 217.839844 239.199219 218.257812 239.4375 218.359375 C 241.539062 219.226562 243.542969 220.394531 245.886719 220.554688 C 250.113281 220.835938 253.976562 219.742188 257.273438 217.136719 C 260.453125 214.625 263.457031 211.890625 266.511719 209.226562 C 268.941406 207.109375 271.46875 205.167969 274.640625 204.289062 C 275.511719 204.050781 276.398438 203.863281 277.4375 203.613281 C 277.511719 168.90625 277.582031 134.222656 277.609375 99.296875 C 264.644531 101.945312 251.96875 104.535156 239.089844 107.167969 C 239.089844 107.878906 239.09375 108.390625 239.089844 108.898438 Z M 239.089844 108.898438 " fill-opacity="1" fill-rule="nonzero"/><path fill="#ff66c4" d="M 109.460938 343.058594 C 109.460938 300.664062 109.460938 258.570312 109.460938 216.246094 C 110.75 216.078125 111.910156 215.867188 113.078125 215.78125 C 117.042969 215.488281 120.800781 216.335938 124.402344 217.960938 C 128.019531 219.59375 131.308594 221.742188 134.378906 224.25 C 136.457031 225.949219 138.550781 227.636719 140.722656 229.214844 C 143.09375 230.9375 145.714844 232.175781 148.550781 232.996094 C 151.460938 233.84375 154.34375 233.816406 157.136719 232.75 C 159.09375 232.003906 161.035156 231.089844 162.789062 229.949219 C 165.421875 228.238281 167.882812 226.269531 170.410156 224.398438 C 174.015625 221.726562 177.832031 219.488281 182.234375 218.363281 C 187.945312 216.90625 193.449219 217.261719 198.6875 220.121094 C 200.941406 221.355469 203.191406 222.597656 205.417969 223.882812 C 208.058594 225.40625 210.800781 226.582031 213.824219 227.171875 C 217.242188 227.835938 220.273438 227.148438 223.097656 225.203125 C 224.648438 224.132812 226.199219 223.050781 227.832031 222.113281 C 230.648438 220.496094 233.71875 219.695312 236.871094 219.503906 C 237.011719 219.636719 237.054688 219.675781 237.09375 219.714844 C 237.132812 219.757812 237.195312 219.800781 237.199219 219.847656 C 237.238281 220.183594 237.289062 220.523438 237.289062 220.863281 C 237.230469 261.492188 237.167969 302.117188 237.101562 342.742188 C 237.101562 342.839844 237.003906 342.9375 236.9375 343.058594 C 194.492188 343.058594 152.035156 343.058594 109.460938 343.058594 Z M 165.582031 56.855469 C 169.347656 57.183594 181.734375 57.074219 182.914062 56.710938 C 182.914062 48.394531 182.914062 40.089844 182.914062 31.707031 C 177.050781 31.707031 171.300781 31.707031 165.457031 31.707031 C 165.046875 34.054688 165.179688 55.71875 165.582031 56.855469 Z M 203.667969 56.953125 C 206.578125 57.296875 219.273438 57.226562 220.546875 56.855469 C 220.546875 48.511719 220.546875 40.148438 220.546875 31.683594 C 214.890625 31.683594 209.324219 31.683594 203.667969 31.683594 C 203.667969 40.253906 203.667969 48.609375 203.667969 56.953125 Z M 255.71875 56.519531 C 255.902344 51.613281 256.132812 46.710938 256.234375 41.804688 C 256.28125 39.53125 256.257812 37.238281 255.4375 35.042969 C 254.554688 32.675781 253.261719 31.613281 250.722656 31.5625 C 247.753906 31.503906 244.785156 31.558594 241.8125 31.574219 C 241.605469 31.578125 241.398438 31.683594 241.226562 31.730469 C 240.867188 34.457031 241 56.035156 241.382812 57.242188 C 246.097656 57.242188 250.816406 57.242188 255.59375 57.242188 C 255.648438 56.949219 255.710938 56.734375 255.71875 56.519531 Z M 239.328125 105.460938 C 251.589844 102.953125 263.453125 100.53125 275.320312 98.105469 C 275.335938 97.988281 275.351562 97.875 275.367188 97.757812 C 265.816406 94.078125 256.265625 90.402344 246.503906 86.644531 C 244.09375 92.964844 241.773438 99.046875 239.328125 105.460938 Z M 140.886719 31.640625 C 137.953125 31.722656 136.367188 32.972656 135.609375 35.816406 C 135.433594 36.472656 135.34375 37.160156 135.277344 37.835938 C 134.707031 43.707031 135.0625 49.578125 135.3125 55.449219 C 135.332031 55.835938 135.445312 56.214844 135.53125 56.6875 C 138.417969 56.6875 141.242188 56.6875 144.164062 56.6875 C 144.164062 48.34375 144.164062 40.101562 144.164062 31.632812 C 142.929688 31.632812 141.90625 31.609375 140.886719 31.640625 Z M 179.566406 90.996094 C 186.269531 90.378906 191.8125 84.132812 191.460938 77.402344 C 191.171875 71.847656 187.371094 67.546875 181.140625 67.410156 C 174.222656 67.261719 168.195312 73.460938 168.160156 80.460938 C 168.003906 87.269531 173.675781 91.539062 179.566406 90.996094 Z M 179.566406 90.996094 " fill-opacity="1" fill-rule="nonzero"/><path fill="#ff66c4" d="M 277.335938 205.40625 C 277.335938 248.121094 277.335938 290.621094 277.335938 333.316406 C 264.527344 336.4375 251.792969 339.539062 238.917969 342.675781 C 238.917969 301.695312 238.917969 260.878906 238.917969 219.882812 C 239.527344 220.101562 239.964844 220.203125 240.351562 220.402344 C 246.667969 223.617188 252.578125 222.410156 258.09375 218.546875 C 260.65625 216.75 262.933594 214.542969 265.335938 212.519531 C 267.125 211.007812 268.847656 209.414062 270.707031 207.996094 C 272.589844 206.554688 274.761719 205.707031 277.335938 205.40625 Z M 163.585938 56.800781 C 163.585938 48.410156 163.585938 40.117188 163.585938 31.636719 C 157.648438 31.675781 151.816406 31.554688 145.96875 31.710938 C 145.96875 40.128906 145.96875 48.328125 145.96875 56.800781 C 151.929688 56.800781 157.71875 56.800781 163.585938 56.800781 Z M 239.511719 57.160156 C 239.511719 48.613281 239.511719 40.148438 239.507812 31.675781 C 233.625 31.675781 227.996094 31.675781 222.285156 31.675781 C 222.285156 40.167969 222.285156 48.535156 222.285156 57.160156 C 228.097656 57.160156 233.714844 57.160156 239.511719 57.160156 Z M 201.609375 31.722656 C 198.390625 31.394531 185.933594 31.546875 184.792969 31.914062 C 184.792969 40.242188 184.792969 48.554688 184.792969 56.964844 C 190.5 56.964844 196.082031 56.964844 201.765625 56.964844 C 202.109375 53.667969 201.96875 32.929688 201.609375 31.722656 Z M 247.089844 85.132812 C 256.980469 88.9375 266.636719 92.648438 276.292969 96.363281 C 276.363281 96.269531 276.433594 96.175781 276.5 96.082031 C 269.929688 84.226562 263.355469 72.371094 256.609375 60.203125 C 253.355469 68.726562 250.238281 76.886719 247.089844 85.132812 Z M 167.390625 144.222656 C 167.253906 143.558594 167.019531 142.898438 166.726562 142.289062 C 166.242188 141.292969 165.609375 140.371094 164.34375 140.367188 C 163.339844 140.367188 162.398438 141.46875 162.09375 142.855469 C 162.058594 143.023438 162.03125 143.191406 162.027344 143.363281 C 161.855469 148.003906 164.003906 151.484375 167.558594 154.289062 C 167.878906 150.867188 168.0625 147.53125 167.390625 144.222656 Z M 178.679688 151.335938 C 179.535156 150.296875 179.652344 149.40625 179.105469 148.886719 C 178.5625 148.371094 177.671875 148.503906 176.648438 149.375 C 174.949219 150.824219 174.054688 152.761719 173.460938 154.90625 C 175.457031 154.027344 177.308594 153.003906 178.679688 151.335938 Z M 190.925781 90.742188 C 191.253906 90.820312 191.738281 90.714844 192.011719 90.511719 C 193.902344 89.097656 195.382812 87.351562 196.355469 85.03125 C 194.871094 84.441406 193.515625 83.90625 192.328125 83.433594 C 190.710938 85.574219 189.191406 87.589844 187.574219 89.734375 C 188.671875 90.074219 189.789062 90.457031 190.925781 90.742188 Z M 197.386719 78.925781 C 197.363281 78.597656 197.09375 78.128906 196.816406 78.003906 C 195.644531 77.488281 194.425781 77.078125 193.164062 76.609375 C 192.996094 78.488281 192.847656 80.160156 192.6875 81.964844 C 194.011719 82.472656 195.367188 82.992188 196.847656 83.558594 C 197.492188 81.867188 197.5 80.394531 197.386719 78.925781 Z M 196.699219 75.882812 C 195.5625 73.121094 193.648438 71.175781 190.667969 70.0625 C 191.359375 71.574219 191.917969 72.878906 192.554688 74.144531 C 192.738281 74.511719 193.089844 74.890625 193.460938 75.058594 C 194.429688 75.492188 195.453125 75.816406 196.457031 76.183594 C 196.539062 76.085938 196.617188 75.984375 196.699219 75.882812 Z M 186.195312 90.859375 C 185.90625 90.769531 185.523438 90.804688 185.238281 90.917969 C 183.929688 91.429688 182.636719 91.988281 181.101562 92.628906 C 183.953125 93.40625 186.515625 93.230469 189.039062 91.847656 C 188.09375 91.511719 187.15625 91.148438 186.195312 90.859375 Z M 186.195312 90.859375 " fill-opacity="1" fill-rule="nonzero"/><g clip-path="url(#4b574216b5)"><path fill="#000000" d="M 107.976562 224.921875 C 107.976562 201.035156 107.96875 177.148438 107.976562 153.265625 C 107.984375 139.039062 108.011719 124.808594 108.027344 110.582031 C 108.027344 110.238281 108.082031 109.886719 108.019531 109.554688 C 107.5625 107.160156 108.457031 105.152344 109.566406 103.085938 C 117.4375 88.378906 125.226562 73.632812 133.066406 58.910156 C 133.648438 57.820312 133.964844 56.777344 133.867188 55.507812 C 133.429688 49.75 133.179688 43.988281 133.605469 38.21875 C 133.734375 36.496094 134.019531 34.824219 134.882812 33.285156 C 135.839844 31.582031 137.21875 30.457031 139.179688 30.234375 C 140.761719 30.058594 142.367188 29.960938 143.960938 29.960938 C 163.171875 29.945312 182.382812 29.964844 201.589844 29.949219 C 217.484375 29.941406 233.378906 29.894531 249.273438 29.890625 C 250.460938 29.890625 251.660156 30.0625 252.835938 30.261719 C 254.542969 30.550781 255.683594 31.605469 256.429688 33.140625 C 257.238281 34.8125 257.742188 36.585938 257.730469 38.425781 C 257.699219 43.164062 257.714844 47.910156 257.410156 52.636719 C 257.179688 56.230469 257.847656 59.351562 259.683594 62.539062 C 265.894531 73.332031 271.796875 84.300781 277.878906 95.164062 C 278.832031 96.863281 279.304688 98.523438 279.277344 100.5 C 279.148438 109.011719 279.171875 117.527344 279.152344 126.042969 C 279.128906 136.84375 279.113281 147.640625 279.101562 158.441406 C 279.0625 192.382812 279.023438 226.324219 278.992188 260.265625 C 278.96875 284.039062 278.957031 307.808594 278.9375 331.578125 C 278.933594 335.320312 278.976562 334.617188 275.964844 335.347656 C 263.917969 338.257812 251.871094 341.164062 239.84375 344.144531 C 238.101562 344.574219 236.390625 344.785156 234.609375 344.78125 C 195.101562 344.726562 155.59375 344.6875 116.085938 344.644531 C 114.027344 344.640625 111.96875 344.6875 109.914062 344.636719 C 107.800781 344.585938 107.738281 344.488281 107.742188 342.34375 C 107.765625 324.402344 107.804688 306.460938 107.8125 288.519531 C 107.828125 267.320312 107.816406 246.121094 107.816406 224.921875 C 107.871094 224.921875 107.921875 224.921875 107.976562 224.921875 Z M 109.460938 343.058594 C 152.035156 343.058594 194.492188 343.058594 236.9375 343.058594 C 237.003906 342.9375 237.101562 342.839844 237.101562 342.742188 C 237.167969 302.117188 237.230469 261.492188 237.289062 220.863281 C 237.289062 220.523438 237.238281 220.183594 237.199219 219.847656 C 237.195312 219.800781 237.132812 219.757812 237.09375 219.714844 C 237.054688 219.675781 237.011719 219.636719 236.871094 219.503906 C 233.71875 219.695312 230.648438 220.496094 227.832031 222.113281 C 226.199219 223.050781 224.648438 224.132812 223.097656 225.203125 C 220.273438 227.148438 217.242188 227.835938 213.824219 227.171875 C 210.800781 226.582031 208.058594 225.40625 205.417969 223.882812 C 203.191406 222.597656 200.941406 221.355469 198.6875 220.121094 C 193.449219 217.261719 187.945312 216.90625 182.234375 218.363281 C 177.832031 219.488281 174.015625 221.726562 170.410156 224.398438 C 167.882812 226.269531 165.421875 228.238281 162.789062 229.949219 C 161.035156 231.089844 159.09375 232.003906 157.136719 232.75 C 154.34375 233.816406 151.460938 233.84375 148.550781 232.996094 C 145.714844 232.175781 143.09375 230.9375 140.722656 229.214844 C 138.550781 227.636719 136.457031 225.949219 134.378906 224.25 C 131.308594 221.742188 128.019531 219.59375 124.402344 217.960938 C 120.800781 216.335938 117.042969 215.488281 113.078125 215.78125 C 111.910156 215.867188 110.75 216.078125 109.460938 216.246094 C 109.460938 258.570312 109.460938 300.664062 109.460938 343.058594 Z M 237.304688 217.753906 C 237.34375 181.011719 237.460938 144.417969 237.464844 107.847656 C 233.738281 107.480469 111.277344 107.546875 109.851562 107.890625 C 109.488281 109.605469 109.425781 213.105469 109.808594 214.484375 C 110.527344 214.410156 111.265625 214.339844 112 214.253906 C 114.460938 213.96875 116.910156 214.078125 119.332031 214.605469 C 124.871094 215.804688 129.652344 218.542969 134.082031 221.957031 C 136.03125 223.457031 137.894531 225.058594 139.828125 226.578125 C 141.902344 228.207031 144.144531 229.554688 146.570312 230.621094 C 150.835938 232.492188 155.015625 232.332031 159.132812 230.21875 C 160.195312 229.675781 161.257812 229.089844 162.230469 228.402344 C 164.472656 226.820312 166.6875 225.203125 168.859375 223.527344 C 171.542969 221.460938 174.363281 219.597656 177.484375 218.296875 C 184.851562 215.222656 192.21875 214.816406 199.476562 218.699219 C 201.589844 219.828125 203.640625 221.082031 205.777344 222.171875 C 207.859375 223.226562 209.949219 224.316406 212.140625 225.082031 C 216.003906 226.429688 219.6875 226.007812 222.953125 223.320312 C 223.347656 222.992188 223.789062 222.722656 224.210938 222.425781 C 227.046875 220.429688 230.125 218.96875 233.546875 218.3125 C 234.71875 218.085938 235.910156 217.957031 237.304688 217.753906 Z M 109.980469 105.996094 C 152.609375 105.996094 194.957031 105.996094 237.363281 105.996094 C 242.773438 91.847656 248.160156 77.773438 253.539062 63.695312 C 254.066406 62.308594 254.566406 60.914062 255.078125 59.519531 C 255.097656 59.46875 255.097656 59.40625 255.09375 59.351562 C 255.089844 59.296875 255.089844 59.234375 255.0625 59.183594 C 255.039062 59.140625 254.988281 59.113281 254.824219 58.960938 C 254.441406 58.960938 253.933594 58.964844 253.425781 58.960938 C 242.734375 58.898438 232.042969 58.824219 221.351562 58.773438 C 193.277344 58.636719 165.207031 58.523438 137.136719 58.351562 C 135.683594 58.339844 134.925781 58.757812 134.238281 60.0625 C 126.472656 74.824219 118.632812 89.546875 110.816406 104.28125 C 110.554688 104.773438 110.328125 105.285156 109.980469 105.996094 Z M 277.335938 205.40625 C 274.761719 205.707031 272.589844 206.554688 270.707031 207.996094 C 268.847656 209.414062 267.125 211.007812 265.335938 212.519531 C 262.933594 214.542969 260.65625 216.75 258.09375 218.546875 C 252.578125 222.410156 246.667969 223.617188 240.351562 220.402344 C 239.964844 220.203125 239.527344 220.101562 238.917969 219.882812 C 238.917969 260.878906 238.917969 301.695312 238.917969 342.675781 C 251.792969 339.539062 264.527344 336.4375 277.335938 333.316406 C 277.335938 290.621094 277.335938 248.121094 277.335938 205.40625 Z M 239.089844 107.167969 C 239.089844 107.878906 239.09375 108.390625 239.089844 108.898438 C 239.074219 119.238281 239.050781 129.578125 239.035156 139.917969 C 238.996094 165.335938 238.960938 190.757812 238.921875 216.175781 C 238.921875 216.632812 238.871094 217.101562 238.953125 217.542969 C 239.011719 217.839844 239.199219 218.257812 239.4375 218.359375 C 241.539062 219.226562 243.542969 220.394531 245.886719 220.554688 C 250.113281 220.835938 253.976562 219.742188 257.273438 217.136719 C 260.453125 214.625 263.457031 211.890625 266.511719 209.226562 C 268.941406 207.109375 271.46875 205.167969 274.640625 204.289062 C 275.511719 204.050781 276.398438 203.863281 277.4375 203.613281 C 277.511719 168.90625 277.582031 134.222656 277.609375 99.296875 C 264.644531 101.945312 251.96875 104.535156 239.089844 107.167969 Z M 165.457031 31.707031 C 165.046875 34.054688 165.179688 55.71875 165.582031 56.855469 C 169.347656 57.183594 181.734375 57.074219 182.914062 56.710938 C 182.914062 48.394531 182.914062 40.089844 182.914062 31.707031 C 177.050781 31.707031 171.300781 31.707031 165.457031 31.707031 Z M 145.96875 56.800781 C 151.929688 56.800781 157.71875 56.800781 163.585938 56.800781 C 163.585938 48.410156 163.585938 40.117188 163.585938 31.636719 C 157.648438 31.675781 151.816406 31.554688 145.96875 31.710938 C 145.96875 40.128906 145.96875 48.328125 145.96875 56.800781 Z M 222.285156 57.160156 C 228.097656 57.160156 233.714844 57.160156 239.511719 57.160156 C 239.511719 48.613281 239.511719 40.148438 239.507812 31.675781 C 233.625 31.675781 227.996094 31.675781 222.285156 31.675781 C 222.285156 40.167969 222.285156 48.535156 222.285156 57.160156 Z M 201.765625 56.964844 C 202.109375 53.667969 201.96875 32.929688 201.609375 31.722656 C 198.390625 31.394531 185.933594 31.546875 184.792969 31.914062 C 184.792969 40.242188 184.792969 48.554688 184.792969 56.964844 C 190.5 56.964844 196.082031 56.964844 201.765625 56.964844 Z M 203.667969 31.683594 C 203.667969 40.253906 203.667969 48.609375 203.667969 56.953125 C 206.578125 57.296875 219.273438 57.226562 220.546875 56.855469 C 220.546875 48.511719 220.546875 40.148438 220.546875 31.683594 C 214.890625 31.683594 209.324219 31.683594 203.667969 31.683594 Z M 256.609375 60.203125 C 253.355469 68.726562 250.238281 76.886719 247.089844 85.132812 C 256.980469 88.9375 266.636719 92.648438 276.292969 96.363281 C 276.363281 96.269531 276.433594 96.175781 276.5 96.082031 C 269.929688 84.226562 263.355469 72.371094 256.609375 60.203125 Z M 255.59375 57.242188 C 255.648438 56.949219 255.710938 56.734375 255.71875 56.519531 C 255.902344 51.613281 256.132812 46.710938 256.234375 41.804688 C 256.28125 39.53125 256.257812 37.238281 255.4375 35.042969 C 254.554688 32.675781 253.261719 31.613281 250.722656 31.5625 C 247.753906 31.503906 244.785156 31.558594 241.8125 31.574219 C 241.605469 31.578125 241.398438 31.683594 241.226562 31.730469 C 240.867188 34.457031 241 56.035156 241.382812 57.242188 C 246.097656 57.242188 250.816406 57.242188 255.59375 57.242188 Z M 246.503906 86.644531 C 244.09375 92.964844 241.773438 99.046875 239.328125 105.460938 C 251.589844 102.953125 263.453125 100.53125 275.320312 98.105469 C 275.335938 97.988281 275.351562 97.875 275.367188 97.757812 C 265.816406 94.078125 256.265625 90.402344 246.503906 86.644531 Z M 144.164062 31.632812 C 142.929688 31.632812 141.90625 31.609375 140.886719 31.640625 C 137.953125 31.722656 136.367188 32.972656 135.609375 35.816406 C 135.433594 36.472656 135.34375 37.160156 135.277344 37.835938 C 134.707031 43.707031 135.0625 49.578125 135.3125 55.449219 C 135.332031 55.835938 135.445312 56.214844 135.53125 56.6875 C 138.417969 56.6875 141.242188 56.6875 144.164062 56.6875 C 144.164062 48.34375 144.164062 40.101562 144.164062 31.632812 Z M 120.972656 172.558594 C 121.414062 173.195312 121.859375 173.828125 122.296875 174.464844 C 125.917969 179.742188 129.539062 185.023438 133.160156 190.296875 C 133.515625 190.8125 133.878906 191.53125 134.585938 191.273438 C 135.015625 191.117188 135.28125 190.476562 135.589844 190.03125 C 135.710938 189.847656 135.742188 189.601562 135.816406 189.386719 C 137.671875 184.046875 139.527344 178.703125 141.386719 173.363281 C 141.5625 172.851562 141.769531 172.347656 141.964844 171.839844 C 142.464844 173.433594 142.648438 174.996094 142.820312 176.558594 C 143.472656 182.632812 144.125 188.710938 144.78125 194.785156 C 144.824219 195.179688 144.816406 195.636719 145.019531 195.9375 C 145.207031 196.214844 145.664062 196.492188 145.96875 196.457031 C 146.226562 196.429688 146.558594 195.988281 146.632812 195.675781 C 146.734375 195.25 146.644531 194.769531 146.59375 194.316406 C 145.605469 185.515625 144.617188 176.71875 143.625 167.921875 C 143.585938 167.582031 143.605469 167.203125 143.453125 166.917969 C 143.316406 166.660156 142.992188 166.367188 142.730469 166.34375 C 142.460938 166.320312 142.078125 166.542969 141.90625 166.777344 C 141.679688 167.085938 141.609375 167.507812 141.476562 167.886719 C 139.269531 174.195312 137.0625 180.503906 134.851562 186.808594 C 134.652344 187.375 134.417969 187.929688 134.125 188.6875 C 133.636719 188.046875 133.28125 187.613281 132.960938 187.152344 C 129.007812 181.476562 125.0625 175.796875 121.113281 170.121094 C 120.820312 169.703125 120.542969 169.246094 120.164062 168.914062 C 119.605469 168.425781 118.851562 168.742188 118.804688 169.480469 C 118.765625 170.042969 118.867188 170.621094 118.945312 171.183594 C 119.9375 178.3125 120.941406 185.441406 121.941406 192.566406 C 122.179688 194.265625 122.40625 195.964844 122.675781 197.65625 C 122.761719 198.207031 123.105469 198.714844 123.707031 198.492188 C 123.988281 198.386719 124.109375 197.800781 124.257812 197.414062 C 124.308594 197.273438 124.226562 197.078125 124.203125 196.910156 C 123.488281 192.046875 122.773438 187.1875 122.0625 182.328125 C 121.59375 179.121094 121.136719 175.914062 120.675781 172.707031 C 120.773438 172.660156 120.875 172.609375 120.972656 172.558594 Z M 213.339844 181.472656 C 216.480469 177.550781 219.628906 173.636719 222.769531 169.714844 C 223.089844 169.3125 223.449219 168.917969 223.648438 168.460938 C 223.753906 168.226562 223.644531 167.726562 223.457031 167.578125 C 223.253906 167.421875 222.761719 167.421875 222.535156 167.570312 C 222.167969 167.808594 221.898438 168.210938 221.613281 168.566406 C 218.503906 172.4375 215.398438 176.3125 212.285156 180.183594 C 211.941406 180.609375 211.570312 181.011719 211.03125 181.636719 C 210.898438 181.050781 210.804688 180.746094 210.761719 180.433594 C 210.210938 176.652344 209.675781 172.867188 209.121094 169.085938 C 208.929688 167.769531 208.597656 167.289062 208.035156 167.511719 C 207.140625 167.863281 207.457031 168.605469 207.550781 169.269531 C 208.652344 177.066406 209.746094 184.859375 210.84375 192.65625 C 210.957031 193.445312 211.0625 194.238281 211.183594 195.027344 C 211.246094 195.421875 211.253906 195.859375 211.441406 196.1875 C 211.605469 196.480469 211.980469 196.652344 212.261719 196.878906 C 212.476562 196.589844 212.890625 196.285156 212.871094 196.015625 C 212.746094 194.480469 212.527344 192.957031 212.320312 191.429688 C 212.019531 189.183594 211.699219 186.9375 211.347656 184.4375 C 212.121094 184.765625 212.640625 184.96875 213.144531 185.203125 C 216.769531 186.878906 220.394531 188.558594 224.019531 190.238281 C 225.777344 191.054688 227.535156 191.878906 229.304688 192.667969 C 229.773438 192.875 230.347656 193.058594 230.65625 192.441406 C 230.953125 191.839844 230.527344 191.492188 230.039062 191.238281 C 229.683594 191.054688 229.316406 190.890625 228.957031 190.722656 C 223.984375 188.425781 219.011719 186.125 214.042969 183.820312 C 213.488281 183.566406 212.953125 183.273438 212.28125 182.933594 C 212.6875 182.371094 212.996094 181.90625 213.339844 181.472656 Z M 184.1875 194.300781 C 185.933594 186.796875 187.683594 179.292969 189.433594 171.785156 C 189.523438 171.398438 189.707031 170.992188 189.664062 170.617188 C 189.617188 170.230469 189.445312 169.683594 189.15625 169.53125 C 188.667969 169.273438 188.316406 169.695312 188.164062 170.175781 C 188.039062 170.554688 187.945312 170.945312 187.855469 171.335938 C 185.984375 179.398438 184.113281 187.460938 182.25 195.527344 C 181.921875 196.9375 182 197.121094 183.332031 197.476562 C 186.695312 198.375 190.070312 199.242188 193.441406 200.113281 C 193.714844 200.183594 194.03125 200.316406 194.269531 200.238281 C 194.546875 200.144531 194.851562 199.894531 194.964844 199.632812 C 195.039062 199.460938 194.863281 199.050781 194.679688 198.921875 C 194.363281 198.707031 193.960938 198.597656 193.578125 198.496094 C 191.484375 197.9375 189.382812 197.394531 187.285156 196.835938 C 186.195312 196.546875 185.109375 196.230469 183.875 195.886719 C 184.011719 195.191406 184.085938 194.742188 184.1875 194.300781 Z M 169.550781 150.625 C 169.480469 151.878906 169.429688 153.472656 169.289062 155.058594 C 169.148438 156.683594 168.5 157.023438 167.210938 156.117188 C 163.441406 153.464844 161.121094 149.871094 160.417969 145.296875 C 160.21875 143.992188 160.328125 142.6875 160.855469 141.441406 C 161.503906 139.90625 162.59375 138.859375 164.285156 138.738281 C 165.867188 138.625 166.976562 139.574219 167.777344 140.828125 C 168.683594 142.242188 169.105469 143.847656 169.246094 145.507812 C 169.378906 147.097656 169.441406 148.691406 169.550781 150.625 Z M 167.558594 154.289062 C 167.878906 150.867188 168.0625 147.53125 167.390625 144.222656 C 167.253906 143.558594 167.019531 142.898438 166.726562 142.289062 C 166.242188 141.292969 165.609375 140.371094 164.34375 140.367188 C 163.339844 140.367188 162.398438 141.46875 162.09375 142.855469 C 162.058594 143.023438 162.03125 143.191406 162.027344 143.363281 C 161.855469 148.003906 164.003906 151.484375 167.558594 154.289062 Z M 160.84375 192.324219 C 161.167969 192.0625 161.535156 191.839844 161.796875 191.527344 C 161.960938 191.328125 161.976562 190.996094 162.042969 190.71875 C 164.042969 182.640625 166.046875 174.5625 168.039062 166.480469 C 168.132812 166.09375 168.265625 165.683594 168.210938 165.308594 C 168.171875 165.039062 167.882812 164.65625 167.648438 164.605469 C 167.40625 164.558594 166.996094 164.789062 166.839844 165.019531 C 166.625 165.332031 166.5625 165.757812 166.46875 166.144531 C 164.46875 174.167969 162.476562 182.1875 160.488281 190.210938 C 160.402344 190.542969 160.339844 190.878906 160.210938 191.46875 C 160.359375 191.667969 160.601562 191.996094 160.84375 192.324219 Z M 181.039062 149.640625 C 181.035156 150.925781 180.402344 151.933594 179.554688 152.808594 C 177.660156 154.765625 175.332031 156.066406 172.878906 157.179688 C 172.34375 157.421875 171.8125 157.429688 171.503906 156.949219 C 171.296875 156.625 171.191406 156.066406 171.324219 155.71875 C 172.195312 153.433594 172.988281 151.101562 174.609375 149.195312 C 175.515625 148.132812 176.539062 147.242188 177.988281 147.046875 C 179.75 146.8125 181.042969 147.917969 181.039062 149.640625 Z M 173.460938 154.90625 C 175.457031 154.027344 177.308594 153.003906 178.679688 151.335938 C 179.535156 150.296875 179.652344 149.40625 179.105469 148.886719 C 178.5625 148.371094 177.671875 148.503906 176.648438 149.375 C 174.949219 150.824219 174.054688 152.761719 173.460938 154.90625 Z M 199.070312 79.992188 C 199.085938 88.65625 191.164062 95.828125 182.59375 94.539062 C 178.847656 93.976562 175.152344 92.660156 171.863281 90.695312 C 167.636719 88.171875 165.769531 83.019531 166.800781 77.824219 C 168.1875 70.832031 174.898438 65.011719 182.671875 65.914062 C 183.570312 66.015625 184.46875 66.234375 185.335938 66.507812 C 187.078125 67.054688 188.789062 67.691406 190.527344 68.257812 C 195.835938 69.992188 199.0625 74.414062 199.070312 79.992188 Z M 168.160156 80.460938 C 168.003906 87.269531 173.675781 91.539062 179.566406 90.996094 C 186.269531 90.378906 191.8125 84.132812 191.460938 77.402344 C 191.171875 71.847656 187.371094 67.546875 181.140625 67.410156 C 174.222656 67.261719 168.195312 73.460938 168.160156 80.460938 Z M 187.574219 89.734375 C 188.671875 90.074219 189.789062 90.457031 190.925781 90.742188 C 191.253906 90.820312 191.738281 90.714844 192.011719 90.511719 C 193.902344 89.097656 195.382812 87.351562 196.355469 85.03125 C 194.871094 84.441406 193.515625 83.90625 192.328125 83.433594 C 190.710938 85.574219 189.191406 87.589844 187.574219 89.734375 Z M 196.847656 83.558594 C 197.492188 81.867188 197.5 80.394531 197.386719 78.925781 C 197.363281 78.597656 197.09375 78.128906 196.816406 78.003906 C 195.644531 77.488281 194.425781 77.078125 193.164062 76.609375 C 192.996094 78.488281 192.847656 80.160156 192.6875 81.964844 C 194.011719 82.472656 195.367188 82.992188 196.847656 83.558594 Z M 196.457031 76.183594 C 196.539062 76.085938 196.617188 75.984375 196.699219 75.882812 C 195.5625 73.121094 193.648438 71.175781 190.667969 70.0625 C 191.359375 71.574219 191.917969 72.878906 192.554688 74.144531 C 192.738281 74.511719 193.089844 74.890625 193.460938 75.058594 C 194.429688 75.492188 195.453125 75.816406 196.457031 76.183594 Z M 189.039062 91.847656 C 188.09375 91.511719 187.15625 91.148438 186.195312 90.859375 C 185.90625 90.769531 185.523438 90.804688 185.238281 90.917969 C 183.929688 91.429688 182.636719 91.988281 181.101562 92.628906 C 183.953125 93.40625 186.515625 93.230469 189.039062 91.847656 Z M 140.285156 63.417969 C 140.015625 63.339844 139.582031 63.382812 139.390625 63.558594 C 139.070312 63.863281 138.867188 64.296875 138.652344 64.695312 C 132.550781 75.871094 126.457031 87.050781 120.359375 98.226562 C 120.195312 98.527344 119.933594 98.824219 119.910156 99.140625 C 119.878906 99.542969 120.042969 99.960938 120.125 100.371094 C 120.507812 100.222656 120.957031 100.152344 121.25 99.902344 C 121.535156 99.660156 121.671875 99.234375 121.863281 98.882812 C 123.855469 95.222656 125.847656 91.5625 127.84375 87.902344 C 131.914062 80.433594 135.988281 72.964844 140.058594 65.496094 C 140.300781 65.046875 140.511719 64.582031 140.765625 64.066406 C 140.601562 63.828125 140.488281 63.476562 140.285156 63.417969 Z M 140.285156 63.417969 " fill-opacity="1" fill-rule="nonzero"/></g></svg>