<svg xmlns="http://www.w3.org/2000/svg" xmlns:xlink="http://www.w3.org/1999/xlink" width="500" zoomAndPan="magnify" viewBox="0 0 375 374.999991" height="500" preserveAspectRatio="xMidYMid meet" version="1.0"><defs><clipPath id="b42ea28c81"><path d="M 94.550781 16.523438 L 280.550781 16.523438 L 280.550781 358.523438 L 94.550781 358.523438 Z M 94.550781 16.523438 " clip-rule="nonzero"/></clipPath><clipPath id="2caf78488b"><path d="M 94.550781 16.523438 L 280.550781 16.523438 L 280.550781 358.523438 L 94.550781 358.523438 Z M 94.550781 16.523438 " clip-rule="nonzero"/></clipPath></defs><g clip-path="url(#b42ea28c81)"><path fill="#000000" d="M 235.09375 220.453125 C 233.585938 220.675781 232.296875 220.816406 231.027344 221.058594 C 227.320312 221.769531 223.988281 223.351562 220.914062 225.515625 C 220.460938 225.835938 219.980469 226.128906 219.550781 226.480469 C 216.019531 229.394531 212.027344 229.851562 207.847656 228.390625 C 205.46875 227.5625 203.207031 226.382812 200.953125 225.238281 C 198.640625 224.058594 196.421875 222.703125 194.128906 221.476562 C 186.269531 217.273438 178.292969 217.714844 170.3125 221.042969 C 166.929688 222.453125 163.878906 224.46875 160.972656 226.707031 C 158.621094 228.519531 156.222656 230.273438 153.792969 231.988281 C 152.738281 232.734375 151.589844 233.367188 150.4375 233.957031 C 145.980469 236.242188 141.453125 236.417969 136.835938 234.390625 C 134.207031 233.238281 131.78125 231.777344 129.53125 230.011719 C 127.441406 228.367188 125.417969 226.632812 123.3125 225.007812 C 118.511719 221.308594 113.332031 218.339844 107.335938 217.042969 C 104.710938 216.472656 102.0625 216.351562 99.394531 216.664062 C 98.597656 216.757812 97.800781 216.832031 97.023438 216.910156 C 96.605469 215.417969 96.675781 103.316406 97.066406 101.457031 C 98.613281 101.085938 231.234375 101.011719 235.269531 101.414062 C 235.261719 141.019531 235.140625 180.65625 235.09375 220.453125 Z M 108.789062 171.664062 C 108.898438 171.609375 109.003906 171.554688 109.113281 171.503906 C 109.589844 172.191406 110.074219 172.875 110.546875 173.566406 C 114.46875 179.28125 118.390625 185 122.3125 190.714844 C 122.695312 191.273438 123.089844 192.050781 123.855469 191.773438 C 124.320312 191.601562 124.609375 190.910156 124.941406 190.425781 C 125.074219 190.230469 125.109375 189.964844 125.1875 189.730469 C 127.199219 183.945312 129.207031 178.15625 131.21875 172.375 C 131.410156 171.816406 131.636719 171.273438 131.847656 170.722656 C 132.386719 172.449219 132.589844 174.140625 132.769531 175.832031 C 133.480469 182.414062 134.183594 188.996094 134.894531 195.574219 C 134.941406 196.003906 134.9375 196.496094 135.15625 196.824219 C 135.359375 197.125 135.851562 197.425781 136.179688 197.386719 C 136.460938 197.359375 136.824219 196.878906 136.902344 196.539062 C 137.011719 196.078125 136.914062 195.558594 136.859375 195.066406 C 135.789062 185.535156 134.71875 176.007812 133.644531 166.480469 C 133.601562 166.109375 133.625 165.699219 133.457031 165.390625 C 133.308594 165.113281 132.960938 164.792969 132.675781 164.769531 C 132.386719 164.746094 131.96875 164.984375 131.78125 165.238281 C 131.539062 165.574219 131.460938 166.03125 131.316406 166.441406 C 128.925781 173.273438 126.535156 180.105469 124.140625 186.9375 C 123.925781 187.550781 123.671875 188.152344 123.355469 188.972656 C 122.828125 188.277344 122.441406 187.804688 122.09375 187.308594 C 117.816406 181.160156 113.542969 175.007812 109.265625 168.863281 C 108.949219 168.40625 108.648438 167.914062 108.238281 167.554688 C 107.632812 167.027344 106.816406 167.367188 106.765625 168.167969 C 106.722656 168.777344 106.832031 169.402344 106.917969 170.011719 C 107.992188 177.734375 109.078125 185.453125 110.160156 193.175781 C 110.417969 195.011719 110.664062 196.851562 110.953125 198.683594 C 111.050781 199.28125 111.421875 199.832031 112.070312 199.589844 C 112.378906 199.476562 112.507812 198.839844 112.667969 198.421875 C 112.726562 198.269531 112.636719 198.058594 112.609375 197.875 C 111.839844 192.609375 111.0625 187.347656 110.292969 182.082031 C 109.789062 178.609375 109.289062 175.136719 108.789062 171.664062 Z M 207.996094 182.738281 C 208.4375 182.128906 208.769531 181.628906 209.144531 181.15625 C 212.546875 176.910156 215.953125 172.667969 219.355469 168.421875 C 219.699219 167.988281 220.089844 167.558594 220.308594 167.0625 C 220.417969 166.808594 220.304688 166.269531 220.097656 166.109375 C 219.882812 165.9375 219.347656 165.9375 219.101562 166.097656 C 218.703125 166.355469 218.414062 166.792969 218.105469 167.175781 C 214.734375 171.371094 211.371094 175.566406 208 179.761719 C 207.628906 180.222656 207.226562 180.65625 206.644531 181.332031 C 206.5 180.699219 206.398438 180.367188 206.351562 180.03125 C 205.753906 175.933594 205.175781 171.835938 204.578125 167.738281 C 204.367188 166.316406 204.007812 165.792969 203.398438 166.035156 C 202.429688 166.417969 202.773438 167.21875 202.875 167.941406 C 204.066406 176.382812 205.253906 184.828125 206.441406 193.269531 C 206.5625 194.125 206.675781 194.984375 206.808594 195.839844 C 206.875 196.265625 206.886719 196.738281 207.085938 197.097656 C 207.261719 197.414062 207.671875 197.597656 207.976562 197.84375 C 208.207031 197.53125 208.65625 197.199219 208.632812 196.90625 C 208.5 195.246094 208.261719 193.59375 208.039062 191.941406 C 207.710938 189.507812 207.363281 187.074219 206.988281 184.367188 C 207.824219 184.722656 208.386719 184.945312 208.933594 185.199219 C 212.859375 187.011719 216.78125 188.832031 220.707031 190.652344 C 222.613281 191.535156 224.515625 192.425781 226.433594 193.28125 C 226.9375 193.507812 227.5625 193.707031 227.894531 193.039062 C 228.21875 192.386719 227.757812 192.007812 227.226562 191.734375 C 226.839844 191.539062 226.449219 191.359375 226.054688 191.175781 C 220.671875 188.683594 215.285156 186.195312 209.90625 183.699219 C 209.304688 183.421875 208.722656 183.105469 207.996094 182.738281 Z M 177.234375 196.769531 C 177.382812 196.015625 177.464844 195.53125 177.574219 195.050781 C 179.464844 186.921875 181.359375 178.792969 183.253906 170.664062 C 183.351562 170.242188 183.550781 169.804688 183.503906 169.398438 C 183.453125 168.976562 183.265625 168.386719 182.953125 168.222656 C 182.421875 167.945312 182.042969 168.398438 181.878906 168.921875 C 181.746094 169.332031 181.640625 169.753906 181.542969 170.175781 C 179.519531 178.910156 177.492188 187.644531 175.472656 196.378906 C 175.117188 197.90625 175.203125 198.105469 176.644531 198.488281 C 180.289062 199.464844 183.941406 200.402344 187.59375 201.347656 C 187.886719 201.425781 188.234375 201.566406 188.488281 201.480469 C 188.789062 201.378906 189.121094 201.109375 189.242188 200.828125 C 189.324219 200.640625 189.136719 200.195312 188.9375 200.058594 C 188.59375 199.824219 188.15625 199.707031 187.742188 199.597656 C 185.472656 198.988281 183.199219 198.402344 180.925781 197.796875 C 179.746094 197.484375 178.570312 197.140625 177.234375 196.769531 Z M 161.722656 147.742188 C 161.601562 145.648438 161.535156 143.921875 161.390625 142.203125 C 161.238281 140.402344 160.78125 138.664062 159.800781 137.132812 C 158.933594 135.777344 157.730469 134.746094 156.019531 134.871094 C 154.1875 135 153.007812 136.132812 152.304688 137.796875 C 151.730469 139.144531 151.613281 140.5625 151.832031 141.972656 C 152.589844 146.929688 155.105469 150.820312 159.1875 153.691406 C 160.582031 154.671875 161.285156 154.304688 161.4375 152.542969 C 161.589844 150.828125 161.644531 149.101562 161.722656 147.742188 Z M 151.605469 191.984375 C 151.765625 192.199219 152.027344 192.554688 152.292969 192.910156 C 152.640625 192.628906 153.042969 192.386719 153.324219 192.046875 C 153.503906 191.832031 153.515625 191.472656 153.589844 191.171875 C 155.757812 182.421875 157.925781 173.671875 160.085938 164.917969 C 160.1875 164.5 160.328125 164.054688 160.269531 163.648438 C 160.226562 163.359375 159.914062 162.941406 159.660156 162.886719 C 159.398438 162.835938 158.953125 163.085938 158.785156 163.335938 C 158.550781 163.675781 158.484375 164.136719 158.382812 164.554688 C 156.21875 173.242188 154.0625 181.933594 151.90625 190.621094 C 151.816406 190.980469 151.746094 191.34375 151.605469 191.984375 Z M 174.160156 146.679688 C 174.164062 144.8125 172.769531 143.613281 170.859375 143.871094 C 169.289062 144.082031 168.179688 145.042969 167.199219 146.195312 C 165.445312 148.261719 164.585938 150.785156 163.644531 153.261719 C 163.5 153.636719 163.613281 154.242188 163.835938 154.59375 C 164.167969 155.117188 164.746094 155.105469 165.324219 154.84375 C 167.980469 153.636719 170.503906 152.226562 172.554688 150.109375 C 173.472656 149.164062 174.15625 148.070312 174.160156 146.679688 Z M 97.207031 99.40625 C 97.582031 98.632812 97.832031 98.082031 98.117188 97.546875 C 106.578125 81.589844 115.066406 65.640625 123.480469 49.652344 C 124.222656 48.238281 125.042969 47.789062 126.617188 47.796875 C 157.015625 47.988281 187.417969 48.109375 217.820312 48.257812 C 229.398438 48.3125 240.976562 48.390625 252.554688 48.460938 C 253.105469 48.464844 253.65625 48.460938 254.070312 48.460938 C 254.246094 48.621094 254.304688 48.652344 254.328125 48.703125 C 254.355469 48.753906 254.359375 48.820312 254.363281 48.882812 C 254.363281 48.941406 254.367188 49.007812 254.347656 49.0625 C 253.792969 50.574219 253.25 52.085938 252.675781 53.585938 C 246.851562 68.835938 241.019531 84.082031 235.160156 99.40625 C 189.234375 99.40625 143.371094 99.40625 97.207031 99.40625 Z M 193.691406 71.238281 C 193.679688 65.195312 190.1875 60.40625 184.4375 58.527344 C 182.558594 57.914062 180.703125 57.222656 178.816406 56.632812 C 177.878906 56.339844 176.90625 56.101562 175.929688 55.988281 C 167.511719 55.015625 160.242188 61.316406 158.742188 68.890625 C 157.628906 74.515625 159.648438 80.097656 164.222656 82.828125 C 167.789062 84.957031 171.789062 86.386719 175.847656 86.996094 C 185.128906 88.394531 193.707031 80.621094 193.691406 71.238281 Z M 130.546875 53.988281 C 130.371094 53.730469 130.246094 53.347656 130.027344 53.285156 C 129.734375 53.199219 129.265625 53.25 129.058594 53.441406 C 128.714844 53.765625 128.492188 54.238281 128.257812 54.671875 C 121.652344 66.777344 115.050781 78.882812 108.449219 90.992188 C 108.273438 91.316406 107.988281 91.636719 107.960938 91.976562 C 107.929688 92.414062 108.105469 92.867188 108.195312 93.3125 C 108.609375 93.152344 109.09375 93.078125 109.414062 92.804688 C 109.722656 92.542969 109.871094 92.082031 110.078125 91.703125 C 112.238281 87.738281 114.394531 83.773438 116.554688 79.808594 C 120.960938 71.71875 125.375 63.628906 129.78125 55.535156 C 130.042969 55.050781 130.273438 54.546875 130.546875 53.988281 Z M 237.03125 102.546875 C 237.011719 113.746094 236.988281 124.945312 236.96875 136.144531 C 236.929688 163.679688 236.886719 191.210938 236.847656 218.746094 C 236.847656 219.238281 236.792969 219.746094 236.882812 220.226562 C 236.945312 220.550781 237.148438 221 237.40625 221.109375 C 239.683594 222.050781 241.851562 223.316406 244.390625 223.484375 C 248.96875 223.792969 253.148438 222.605469 256.722656 219.785156 C 260.164062 217.0625 263.417969 214.101562 266.726562 211.214844 C 269.355469 208.921875 272.09375 206.820312 275.53125 205.871094 C 276.476562 205.609375 277.4375 205.410156 278.558594 205.140625 C 278.640625 167.542969 278.714844 129.976562 278.746094 92.152344 C 264.707031 95.019531 250.976562 97.824219 237.03125 100.671875 C 237.03125 101.445312 237.03125 101.996094 237.03125 102.546875 Z M 96.648438 356.175781 C 96.648438 310.257812 96.648438 264.664062 96.648438 218.824219 C 98.042969 218.640625 99.296875 218.410156 100.5625 218.316406 C 104.859375 218 108.925781 218.921875 112.828125 220.679688 C 116.746094 222.449219 120.304688 224.773438 123.632812 227.492188 C 125.882812 229.332031 128.148438 231.160156 130.5 232.867188 C 133.066406 234.734375 135.90625 236.074219 138.976562 236.964844 C 142.132812 237.878906 145.253906 237.851562 148.273438 236.699219 C 150.398438 235.890625 152.5 234.898438 154.402344 233.664062 C 157.25 231.8125 159.917969 229.679688 162.648438 227.652344 C 166.554688 224.757812 170.691406 222.332031 175.457031 221.113281 C 181.640625 219.535156 187.601562 219.921875 193.273438 223.019531 C 195.71875 224.355469 198.15625 225.699219 200.5625 227.089844 C 203.421875 228.742188 206.390625 230.015625 209.667969 230.652344 C 213.371094 231.371094 216.652344 230.632812 219.710938 228.519531 C 221.390625 227.363281 223.070312 226.1875 224.835938 225.175781 C 227.886719 223.425781 231.214844 222.554688 234.625 222.347656 C 234.78125 222.496094 234.828125 222.535156 234.867188 222.578125 C 234.910156 222.625 234.976562 222.667969 234.980469 222.71875 C 235.023438 223.085938 235.082031 223.457031 235.082031 223.824219 C 235.015625 267.828125 234.949219 311.832031 234.875 355.835938 C 234.875 355.941406 234.769531 356.042969 234.699219 356.175781 C 188.730469 356.175781 142.75 356.175781 96.648438 356.175781 Z M 157.425781 46.179688 C 161.5 46.535156 174.917969 46.414062 176.195312 46.019531 C 176.195312 37.015625 176.195312 28.019531 176.195312 18.9375 C 169.84375 18.9375 163.617188 18.9375 157.289062 18.9375 C 156.84375 21.480469 156.984375 44.949219 157.425781 46.179688 Z M 198.667969 46.285156 C 201.820312 46.660156 215.570312 46.578125 216.949219 46.175781 C 216.949219 37.140625 216.949219 28.082031 216.949219 18.914062 C 210.820312 18.914062 204.796875 18.914062 198.667969 18.914062 C 198.667969 28.195312 198.667969 37.25 198.667969 46.285156 Z M 255.039062 45.8125 C 255.238281 40.5 255.488281 35.1875 255.597656 29.875 C 255.648438 27.414062 255.625 24.933594 254.734375 22.550781 C 253.777344 19.988281 252.378906 18.839844 249.628906 18.785156 C 246.414062 18.722656 243.195312 18.777344 239.980469 18.796875 C 239.753906 18.796875 239.53125 18.914062 239.347656 18.964844 C 238.953125 21.917969 239.097656 45.289062 239.511719 46.597656 C 244.617188 46.597656 249.730469 46.597656 254.90625 46.597656 C 254.960938 46.277344 255.03125 46.046875 255.039062 45.8125 Z M 237.289062 98.824219 C 250.566406 96.109375 263.414062 93.484375 276.265625 90.855469 C 276.28125 90.730469 276.300781 90.605469 276.320312 90.480469 C 265.972656 86.496094 255.628906 82.511719 245.058594 78.441406 C 242.449219 85.289062 239.9375 91.878906 237.289062 98.824219 Z M 130.679688 18.867188 C 127.503906 18.957031 125.785156 20.308594 124.964844 23.390625 C 124.773438 24.101562 124.675781 24.84375 124.601562 25.578125 C 123.984375 31.9375 124.371094 38.296875 124.644531 44.65625 C 124.660156 45.074219 124.789062 45.484375 124.878906 45.996094 C 128.003906 45.996094 131.0625 45.996094 134.226562 45.996094 C 134.226562 36.960938 134.226562 28.03125 134.226562 18.859375 C 132.890625 18.859375 131.785156 18.835938 130.679688 18.867188 Z M 172.570312 83.160156 C 179.828125 82.492188 185.832031 75.726562 185.449219 68.433594 C 185.132812 62.417969 181.019531 57.757812 174.269531 57.613281 C 166.78125 57.449219 160.253906 64.167969 160.214844 71.746094 C 160.046875 79.121094 166.191406 83.746094 172.570312 83.160156 Z M 278.445312 207.078125 C 278.445312 253.347656 278.445312 299.378906 278.445312 345.625 C 264.578125 349.007812 250.785156 352.367188 236.84375 355.765625 C 236.84375 311.375 236.84375 267.164062 236.84375 222.757812 C 237.503906 222.996094 237.976562 223.109375 238.394531 223.324219 C 245.238281 226.808594 251.636719 225.5 257.609375 221.3125 C 260.382812 219.363281 262.851562 216.976562 265.453125 214.78125 C 267.390625 213.148438 269.257812 211.421875 271.269531 209.882812 C 273.308594 208.324219 275.664062 207.40625 278.445312 207.078125 Z M 155.261719 46.117188 C 155.261719 37.03125 155.261719 28.046875 155.261719 18.863281 C 148.832031 18.90625 142.515625 18.773438 136.179688 18.945312 C 136.179688 28.0625 136.179688 36.941406 136.179688 46.117188 C 142.636719 46.117188 148.910156 46.117188 155.261719 46.117188 Z M 237.488281 46.507812 C 237.488281 37.25 237.488281 28.082031 237.480469 18.90625 C 231.109375 18.90625 225.015625 18.90625 218.828125 18.90625 C 218.828125 28.105469 218.828125 37.167969 218.828125 46.507812 C 225.125 46.507812 231.210938 46.507812 237.488281 46.507812 Z M 196.441406 18.957031 C 192.953125 18.601562 179.464844 18.765625 178.226562 19.164062 C 178.226562 28.183594 178.226562 37.1875 178.226562 46.296875 C 184.410156 46.296875 190.453125 46.296875 196.609375 46.296875 C 196.980469 42.726562 196.828125 20.265625 196.441406 18.957031 Z M 245.695312 76.808594 C 256.402344 80.925781 266.863281 84.949219 277.320312 88.972656 C 277.394531 88.871094 277.46875 88.769531 277.542969 88.667969 C 270.425781 75.824219 263.308594 62.984375 256 49.804688 C 252.476562 59.035156 249.105469 67.875 245.695312 76.808594 Z M 159.378906 140.808594 C 159.234375 140.089844 158.980469 139.375 158.660156 138.714844 C 158.140625 137.636719 157.453125 136.636719 156.082031 136.632812 C 154.996094 136.632812 153.976562 137.828125 153.648438 139.328125 C 153.609375 139.507812 153.578125 139.695312 153.570312 139.878906 C 153.386719 144.902344 155.714844 148.675781 159.566406 151.714844 C 159.910156 148.007812 160.109375 144.394531 159.378906 140.808594 Z M 171.609375 148.515625 C 172.535156 147.390625 172.664062 146.425781 172.070312 145.859375 C 171.480469 145.300781 170.515625 145.449219 169.410156 146.390625 C 167.570312 147.960938 166.597656 150.058594 165.953125 152.382812 C 168.117188 151.429688 170.121094 150.320312 171.609375 148.515625 Z M 184.871094 82.882812 C 185.226562 82.96875 185.75 82.851562 186.046875 82.632812 C 188.09375 81.101562 189.695312 79.210938 190.75 76.699219 C 189.140625 76.058594 187.671875 75.476562 186.386719 74.96875 C 184.636719 77.285156 182.992188 79.46875 181.238281 81.789062 C 182.429688 82.15625 183.636719 82.574219 184.871094 82.882812 Z M 191.867188 70.082031 C 191.839844 69.726562 191.550781 69.21875 191.246094 69.085938 C 189.980469 68.527344 188.660156 68.082031 187.292969 67.574219 C 187.113281 69.613281 186.949219 71.421875 186.777344 73.375 C 188.210938 73.925781 189.679688 74.488281 191.285156 75.101562 C 191.980469 73.269531 191.988281 71.675781 191.867188 70.082031 Z M 191.121094 66.789062 C 189.890625 63.796875 187.820312 61.6875 184.589844 60.484375 C 185.335938 62.121094 185.945312 63.535156 186.632812 64.90625 C 186.835938 65.304688 187.214844 65.714844 187.613281 65.894531 C 188.664062 66.367188 189.773438 66.714844 190.859375 67.113281 C 190.945312 67.007812 191.035156 66.898438 191.121094 66.789062 Z M 179.746094 83.007812 C 179.429688 82.914062 179.019531 82.953125 178.710938 83.074219 C 177.292969 83.625 175.894531 84.230469 174.230469 84.925781 C 177.320312 85.769531 180.09375 85.578125 182.828125 84.078125 C 181.800781 83.714844 180.785156 83.324219 179.746094 83.007812 Z M 95.039062 228.214844 C 95.039062 202.34375 95.03125 176.476562 95.039062 150.605469 C 95.046875 135.195312 95.074219 119.78125 95.09375 104.371094 C 95.09375 104 95.152344 103.617188 95.085938 103.257812 C 94.589844 100.664062 95.558594 98.492188 96.757812 96.25 C 105.285156 80.324219 113.71875 64.351562 122.210938 48.40625 C 122.839844 47.222656 123.179688 46.09375 123.078125 44.71875 C 122.601562 38.484375 122.332031 32.242188 122.792969 25.992188 C 122.933594 24.125 123.242188 22.316406 124.175781 20.648438 C 125.214844 18.804688 126.707031 17.585938 128.828125 17.347656 C 130.546875 17.152344 132.28125 17.050781 134.007812 17.046875 C 154.8125 17.03125 175.617188 17.050781 196.417969 17.035156 C 213.632812 17.027344 230.84375 16.976562 248.058594 16.972656 C 249.34375 16.972656 250.644531 17.15625 251.914062 17.375 C 253.765625 17.6875 255 18.828125 255.808594 20.492188 C 256.683594 22.304688 257.226562 24.222656 257.214844 26.214844 C 257.179688 31.347656 257.203125 36.492188 256.871094 41.609375 C 256.617188 45.503906 257.34375 48.882812 259.332031 52.335938 C 266.058594 64.023438 272.453125 75.902344 279.039062 87.671875 C 280.070312 89.511719 280.582031 91.308594 280.550781 93.453125 C 280.414062 102.671875 280.4375 111.894531 280.414062 121.117188 C 280.390625 132.816406 280.371094 144.511719 280.359375 156.210938 C 280.316406 192.972656 280.277344 229.738281 280.242188 266.5 C 280.21875 292.25 280.207031 317.996094 280.183594 343.742188 C 280.179688 347.792969 280.226562 347.035156 276.964844 347.824219 C 263.917969 350.976562 250.875 354.125 237.847656 357.351562 C 235.960938 357.816406 234.109375 358.046875 232.179688 358.042969 C 189.394531 357.980469 146.605469 357.9375 103.820312 357.894531 C 101.59375 357.890625 99.363281 357.941406 97.136719 357.886719 C 94.847656 357.832031 94.78125 357.722656 94.78125 355.402344 C 94.808594 335.96875 94.851562 316.535156 94.863281 297.101562 C 94.875 274.140625 94.863281 251.179688 94.863281 228.214844 C 94.921875 228.214844 94.980469 228.214844 95.039062 228.214844 Z M 96.648438 356.175781 C 142.75 356.175781 188.730469 356.175781 234.699219 356.175781 C 234.769531 356.042969 234.875 355.941406 234.875 355.835938 C 234.949219 311.832031 235.015625 267.828125 235.082031 223.824219 C 235.082031 223.457031 235.023438 223.085938 234.980469 222.71875 C 234.976562 222.667969 234.910156 222.625 234.867188 222.578125 C 234.828125 222.535156 234.78125 222.496094 234.625 222.347656 C 231.214844 222.554688 227.886719 223.425781 224.835938 225.175781 C 223.070312 226.1875 221.390625 227.363281 219.710938 228.519531 C 216.652344 230.632812 213.371094 231.371094 209.667969 230.652344 C 206.390625 230.015625 203.421875 228.742188 200.5625 227.089844 C 198.15625 225.699219 195.71875 224.355469 193.273438 223.019531 C 187.601562 219.921875 181.640625 219.535156 175.457031 221.113281 C 170.691406 222.332031 166.554688 224.757812 162.648438 227.652344 C 159.917969 229.679688 157.25 231.8125 154.402344 233.664062 C 152.5 234.898438 150.398438 235.890625 148.273438 236.699219 C 145.253906 237.851562 142.132812 237.878906 138.976562 236.964844 C 135.90625 236.074219 133.066406 234.734375 130.5 232.867188 C 128.148438 231.160156 125.882812 229.332031 123.632812 227.492188 C 120.304688 224.773438 116.746094 222.449219 112.828125 220.679688 C 108.925781 218.921875 104.859375 218 100.5625 218.316406 C 99.296875 218.410156 98.042969 218.640625 96.648438 218.824219 C 96.648438 264.664062 96.648438 310.257812 96.648438 356.175781 Z M 235.09375 220.453125 C 235.140625 180.65625 235.261719 141.019531 235.269531 101.414062 C 231.234375 101.011719 98.613281 101.085938 97.066406 101.457031 C 96.675781 103.316406 96.605469 215.417969 97.023438 216.910156 C 97.800781 216.832031 98.597656 216.757812 99.394531 216.664062 C 102.0625 216.351562 104.710938 216.472656 107.335938 217.042969 C 113.332031 218.339844 118.511719 221.308594 123.3125 225.007812 C 125.417969 226.632812 127.441406 228.367188 129.53125 230.011719 C 131.78125 231.777344 134.207031 233.238281 136.835938 234.390625 C 141.453125 236.417969 145.980469 236.242188 150.4375 233.957031 C 151.589844 233.367188 152.738281 232.734375 153.792969 231.988281 C 156.222656 230.273438 158.621094 228.519531 160.972656 226.707031 C 163.878906 224.46875 166.929688 222.453125 170.3125 221.042969 C 178.292969 217.714844 186.269531 217.273438 194.128906 221.476562 C 196.421875 222.703125 198.640625 224.058594 200.953125 225.238281 C 203.207031 226.382812 205.46875 227.5625 207.847656 228.390625 C 212.027344 229.851562 216.019531 229.394531 219.550781 226.480469 C 219.980469 226.128906 220.460938 225.835938 220.914062 225.515625 C 223.988281 223.351562 227.320312 221.769531 231.027344 221.058594 C 232.296875 220.816406 233.585938 220.675781 235.09375 220.453125 Z M 97.207031 99.40625 C 143.371094 99.40625 189.234375 99.40625 235.160156 99.40625 C 241.019531 84.082031 246.851562 68.835938 252.675781 53.585938 C 253.25 52.085938 253.792969 50.574219 254.347656 49.0625 C 254.367188 49.007812 254.363281 48.941406 254.363281 48.882812 C 254.359375 48.820312 254.355469 48.753906 254.328125 48.703125 C 254.304688 48.652344 254.246094 48.621094 254.070312 48.460938 C 253.65625 48.460938 253.105469 48.464844 252.554688 48.460938 C 240.976562 48.390625 229.398438 48.3125 217.820312 48.257812 C 187.417969 48.109375 157.015625 47.988281 126.617188 47.796875 C 125.042969 47.789062 124.222656 48.238281 123.480469 49.652344 C 115.066406 65.640625 106.578125 81.589844 98.117188 97.546875 C 97.832031 98.082031 97.582031 98.632812 97.207031 99.40625 Z M 278.445312 207.078125 C 275.664062 207.40625 273.308594 208.324219 271.269531 209.882812 C 269.257812 211.421875 267.390625 213.148438 265.453125 214.78125 C 262.851562 216.976562 260.382812 219.363281 257.609375 221.3125 C 251.636719 225.5 245.238281 226.808594 238.394531 223.324219 C 237.976562 223.109375 237.503906 222.996094 236.84375 222.757812 C 236.84375 267.164062 236.84375 311.375 236.84375 355.765625 C 250.785156 352.367188 264.578125 349.007812 278.445312 345.625 C 278.445312 299.378906 278.445312 253.347656 278.445312 207.078125 Z M 237.03125 100.671875 C 237.03125 101.445312 237.03125 101.996094 237.03125 102.546875 C 237.011719 113.746094 236.988281 124.945312 236.96875 136.144531 C 236.929688 163.679688 236.886719 191.210938 236.847656 218.746094 C 236.847656 219.238281 236.792969 219.746094 236.882812 220.226562 C 236.945312 220.550781 237.148438 221 237.40625 221.109375 C 239.683594 222.050781 241.851562 223.316406 244.390625 223.484375 C 248.96875 223.792969 253.148438 222.605469 256.722656 219.785156 C 260.164062 217.0625 263.417969 214.101562 266.726562 211.214844 C 269.355469 208.921875 272.09375 206.820312 275.53125 205.871094 C 276.476562 205.609375 277.4375 205.410156 278.558594 205.140625 C 278.640625 167.542969 278.714844 129.976562 278.746094 92.152344 C 264.707031 95.019531 250.976562 97.824219 237.03125 100.671875 Z M 157.289062 18.9375 C 156.84375 21.480469 156.984375 44.949219 157.425781 46.179688 C 161.5 46.535156 174.917969 46.414062 176.195312 46.019531 C 176.195312 37.015625 176.195312 28.019531 176.195312 18.9375 C 169.84375 18.9375 163.617188 18.9375 157.289062 18.9375 Z M 136.179688 46.117188 C 142.636719 46.117188 148.910156 46.117188 155.261719 46.117188 C 155.261719 37.03125 155.261719 28.046875 155.261719 18.863281 C 148.832031 18.90625 142.515625 18.773438 136.179688 18.945312 C 136.179688 28.0625 136.179688 36.941406 136.179688 46.117188 Z M 218.828125 46.507812 C 225.125 46.507812 231.210938 46.507812 237.488281 46.507812 C 237.488281 37.25 237.488281 28.082031 237.480469 18.90625 C 231.109375 18.90625 225.015625 18.90625 218.828125 18.90625 C 218.828125 28.105469 218.828125 37.167969 218.828125 46.507812 Z M 196.609375 46.296875 C 196.980469 42.726562 196.828125 20.265625 196.441406 18.957031 C 192.953125 18.601562 179.464844 18.765625 178.226562 19.164062 C 178.226562 28.183594 178.226562 37.1875 178.226562 46.296875 C 184.410156 46.296875 190.453125 46.296875 196.609375 46.296875 Z M 198.667969 18.914062 C 198.667969 28.195312 198.667969 37.25 198.667969 46.285156 C 201.820312 46.660156 215.570312 46.578125 216.949219 46.175781 C 216.949219 37.140625 216.949219 28.082031 216.949219 18.914062 C 210.820312 18.914062 204.796875 18.914062 198.667969 18.914062 Z M 256 49.804688 C 252.476562 59.035156 249.105469 67.875 245.695312 76.808594 C 256.402344 80.925781 266.863281 84.949219 277.320312 88.972656 C 277.394531 88.871094 277.46875 88.769531 277.542969 88.667969 C 270.425781 75.824219 263.308594 62.984375 256 49.804688 Z M 254.90625 46.597656 C 254.960938 46.277344 255.03125 46.046875 255.039062 45.8125 C 255.238281 40.5 255.488281 35.1875 255.597656 29.875 C 255.648438 27.414062 255.625 24.933594 254.734375 22.550781 C 253.777344 19.988281 252.378906 18.839844 249.628906 18.785156 C 246.414062 18.722656 243.195312 18.777344 239.980469 18.796875 C 239.753906 18.796875 239.53125 18.914062 239.347656 18.964844 C 238.953125 21.917969 239.097656 45.289062 239.511719 46.597656 C 244.617188 46.597656 249.730469 46.597656 254.90625 46.597656 Z M 245.058594 78.441406 C 242.449219 85.289062 239.9375 91.878906 237.289062 98.824219 C 250.566406 96.109375 263.414062 93.484375 276.265625 90.855469 C 276.28125 90.730469 276.300781 90.605469 276.320312 90.480469 C 265.972656 86.496094 255.628906 82.511719 245.058594 78.441406 Z M 134.226562 18.859375 C 132.890625 18.859375 131.785156 18.835938 130.679688 18.867188 C 127.503906 18.957031 125.785156 20.308594 124.964844 23.390625 C 124.773438 24.101562 124.675781 24.84375 124.601562 25.578125 C 123.984375 31.9375 124.371094 38.296875 124.644531 44.65625 C 124.660156 45.074219 124.789062 45.484375 124.878906 45.996094 C 128.003906 45.996094 131.0625 45.996094 134.226562 45.996094 C 134.226562 36.960938 134.226562 28.03125 134.226562 18.859375 Z M 109.113281 171.503906 C 109.589844 172.191406 110.074219 172.875 110.546875 173.566406 C 114.46875 179.28125 118.390625 185 122.3125 190.714844 C 122.695312 191.273438 123.089844 192.050781 123.855469 191.773438 C 124.320312 191.601562 124.609375 190.910156 124.941406 190.425781 C 125.074219 190.230469 125.109375 189.964844 125.1875 189.730469 C 127.199219 183.945312 129.207031 178.15625 131.21875 172.375 C 131.410156 171.816406 131.636719 171.273438 131.847656 170.722656 C 132.386719 172.449219 132.589844 174.140625 132.769531 175.832031 C 133.480469 182.414062 134.183594 188.996094 134.894531 195.574219 C 134.941406 196.003906 134.9375 196.496094 135.15625 196.824219 C 135.359375 197.125 135.851562 197.425781 136.179688 197.386719 C 136.460938 197.359375 136.824219 196.878906 136.902344 196.539062 C 137.011719 196.078125 136.914062 195.558594 136.859375 195.066406 C 135.789062 185.535156 134.71875 176.007812 133.644531 166.480469 C 133.601562 166.109375 133.625 165.699219 133.457031 165.390625 C 133.308594 165.113281 132.960938 164.792969 132.675781 164.769531 C 132.386719 164.746094 131.96875 164.984375 131.78125 165.238281 C 131.539062 165.574219 131.460938 166.03125 131.316406 166.441406 C 128.925781 173.273438 126.535156 180.105469 124.140625 186.9375 C 123.925781 187.550781 123.671875 188.152344 123.355469 188.972656 C 122.828125 188.277344 122.441406 187.804688 122.09375 187.308594 C 117.816406 181.160156 113.542969 175.007812 109.265625 168.863281 C 108.949219 168.40625 108.648438 167.914062 108.238281 167.554688 C 107.632812 167.027344 106.816406 167.367188 106.765625 168.167969 C 106.722656 168.777344 106.832031 169.402344 106.917969 170.011719 C 107.992188 177.734375 109.078125 185.453125 110.160156 193.175781 C 110.417969 195.011719 110.664062 196.851562 110.953125 198.683594 C 111.050781 199.28125 111.421875 199.832031 112.070312 199.589844 C 112.378906 199.476562 112.507812 198.839844 112.667969 198.421875 C 112.726562 198.269531 112.636719 198.058594 112.609375 197.875 C 111.839844 192.609375 111.0625 187.347656 110.292969 182.082031 C 109.789062 178.609375 109.289062 175.136719 108.789062 171.664062 C 108.898438 171.609375 109.003906 171.554688 109.113281 171.503906 Z M 209.144531 181.15625 C 212.546875 176.910156 215.953125 172.667969 219.355469 168.421875 C 219.699219 167.988281 220.089844 167.558594 220.308594 167.0625 C 220.417969 166.808594 220.304688 166.269531 220.097656 166.109375 C 219.882812 165.9375 219.347656 165.9375 219.101562 166.097656 C 218.703125 166.355469 218.414062 166.792969 218.105469 167.175781 C 214.734375 171.371094 211.371094 175.566406 208 179.761719 C 207.628906 180.222656 207.226562 180.65625 206.644531 181.332031 C 206.5 180.699219 206.398438 180.367188 206.351562 180.03125 C 205.753906 175.933594 205.175781 171.835938 204.578125 167.738281 C 204.367188 166.316406 204.007812 165.792969 203.398438 166.035156 C 202.429688 166.417969 202.773438 167.21875 202.875 167.941406 C 204.066406 176.382812 205.253906 184.828125 206.441406 193.269531 C 206.5625 194.125 206.675781 194.984375 206.808594 195.839844 C 206.875 196.265625 206.886719 196.738281 207.085938 197.097656 C 207.261719 197.414062 207.671875 197.597656 207.976562 197.84375 C 208.207031 197.53125 208.65625 197.199219 208.632812 196.90625 C 208.5 195.246094 208.261719 193.59375 208.039062 191.941406 C 207.710938 189.507812 207.363281 187.074219 206.988281 184.367188 C 207.824219 184.722656 208.386719 184.945312 208.933594 185.199219 C 212.859375 187.011719 216.78125 188.832031 220.707031 190.652344 C 222.613281 191.535156 224.515625 192.425781 226.433594 193.28125 C 226.9375 193.507812 227.5625 193.707031 227.894531 193.039062 C 228.21875 192.386719 227.757812 192.007812 227.226562 191.734375 C 226.839844 191.539062 226.449219 191.359375 226.054688 191.175781 C 220.671875 188.683594 215.285156 186.195312 209.90625 183.699219 C 209.304688 183.421875 208.722656 183.105469 207.996094 182.738281 C 208.4375 182.128906 208.769531 181.628906 209.144531 181.15625 Z M 177.574219 195.050781 C 179.464844 186.921875 181.359375 178.792969 183.253906 170.664062 C 183.351562 170.242188 183.550781 169.804688 183.503906 169.398438 C 183.453125 168.976562 183.265625 168.386719 182.953125 168.222656 C 182.421875 167.945312 182.042969 168.398438 181.878906 168.921875 C 181.746094 169.332031 181.640625 169.753906 181.542969 170.175781 C 179.519531 178.910156 177.492188 187.644531 175.472656 196.378906 C 175.117188 197.90625 175.203125 198.105469 176.644531 198.488281 C 180.289062 199.464844 183.941406 200.402344 187.59375 201.347656 C 187.886719 201.425781 188.234375 201.566406 188.488281 201.480469 C 188.789062 201.378906 189.121094 201.109375 189.242188 200.828125 C 189.324219 200.640625 189.136719 200.195312 188.9375 200.058594 C 188.59375 199.824219 188.15625 199.707031 187.742188 199.597656 C 185.472656 198.988281 183.199219 198.402344 180.925781 197.796875 C 179.746094 197.484375 178.570312 197.140625 177.234375 196.769531 C 177.382812 196.015625 177.464844 195.53125 177.574219 195.050781 Z M 161.722656 147.742188 C 161.644531 149.101562 161.589844 150.828125 161.4375 152.542969 C 161.285156 154.304688 160.582031 154.671875 159.1875 153.691406 C 155.105469 150.820312 152.589844 146.929688 151.832031 141.972656 C 151.613281 140.5625 151.730469 139.144531 152.304688 137.796875 C 153.007812 136.132812 154.1875 135 156.019531 134.871094 C 157.730469 134.746094 158.933594 135.777344 159.800781 137.132812 C 160.78125 138.664062 161.238281 140.402344 161.390625 142.203125 C 161.535156 143.921875 161.601562 145.648438 161.722656 147.742188 Z M 159.566406 151.714844 C 159.910156 148.007812 160.109375 144.394531 159.378906 140.808594 C 159.234375 140.089844 158.980469 139.375 158.660156 138.714844 C 158.140625 137.636719 157.453125 136.636719 156.082031 136.632812 C 154.996094 136.632812 153.976562 137.828125 153.648438 139.328125 C 153.609375 139.507812 153.578125 139.695312 153.570312 139.878906 C 153.386719 144.902344 155.714844 148.675781 159.566406 151.714844 Z M 152.292969 192.910156 C 152.640625 192.628906 153.042969 192.386719 153.324219 192.046875 C 153.503906 191.832031 153.515625 191.472656 153.589844 191.171875 C 155.757812 182.421875 157.925781 173.671875 160.085938 164.917969 C 160.1875 164.5 160.328125 164.054688 160.269531 163.648438 C 160.226562 163.359375 159.914062 162.941406 159.660156 162.886719 C 159.398438 162.835938 158.953125 163.085938 158.785156 163.335938 C 158.550781 163.675781 158.484375 164.136719 158.382812 164.554688 C 156.21875 173.242188 154.0625 181.933594 151.90625 190.621094 C 151.816406 190.980469 151.746094 191.34375 151.605469 191.984375 C 151.765625 192.199219 152.027344 192.554688 152.292969 192.910156 Z M 174.160156 146.679688 C 174.15625 148.070312 173.472656 149.164062 172.554688 150.109375 C 170.503906 152.226562 167.980469 153.636719 165.324219 154.84375 C 164.746094 155.105469 164.167969 155.117188 163.835938 154.59375 C 163.613281 154.242188 163.5 153.636719 163.644531 153.261719 C 164.585938 150.785156 165.445312 148.261719 167.199219 146.195312 C 168.179688 145.042969 169.289062 144.082031 170.859375 143.871094 C 172.769531 143.613281 174.164062 144.8125 174.160156 146.679688 Z M 165.953125 152.382812 C 168.117188 151.429688 170.121094 150.320312 171.609375 148.515625 C 172.535156 147.390625 172.664062 146.425781 172.070312 145.859375 C 171.480469 145.300781 170.515625 145.449219 169.410156 146.390625 C 167.570312 147.960938 166.597656 150.058594 165.953125 152.382812 Z M 193.691406 71.238281 C 193.707031 80.621094 185.128906 88.394531 175.847656 86.996094 C 171.789062 86.386719 167.789062 84.957031 164.222656 82.828125 C 159.648438 80.097656 157.628906 74.515625 158.742188 68.890625 C 160.242188 61.316406 167.511719 55.015625 175.929688 55.988281 C 176.90625 56.101562 177.878906 56.339844 178.816406 56.632812 C 180.703125 57.222656 182.558594 57.914062 184.4375 58.527344 C 190.1875 60.40625 193.679688 65.195312 193.691406 71.238281 Z M 160.214844 71.746094 C 160.046875 79.121094 166.191406 83.746094 172.570312 83.160156 C 179.828125 82.492188 185.832031 75.726562 185.449219 68.433594 C 185.132812 62.417969 181.019531 57.757812 174.269531 57.613281 C 166.78125 57.449219 160.253906 64.167969 160.214844 71.746094 Z M 181.238281 81.789062 C 182.429688 82.15625 183.636719 82.574219 184.871094 82.882812 C 185.226562 82.96875 185.75 82.851562 186.046875 82.632812 C 188.09375 81.101562 189.695312 79.210938 190.75 76.699219 C 189.140625 76.058594 187.671875 75.476562 186.386719 74.96875 C 184.636719 77.285156 182.992188 79.46875 181.238281 81.789062 Z M 191.285156 75.101562 C 191.980469 73.269531 191.988281 71.675781 191.867188 70.082031 C 191.839844 69.726562 191.550781 69.21875 191.246094 69.085938 C 189.980469 68.527344 188.660156 68.082031 187.292969 67.574219 C 187.113281 69.613281 186.949219 71.421875 186.777344 73.375 C 188.210938 73.925781 189.679688 74.488281 191.285156 75.101562 Z M 190.859375 67.113281 C 190.945312 67.007812 191.035156 66.898438 191.121094 66.789062 C 189.890625 63.796875 187.820312 61.6875 184.589844 60.484375 C 185.335938 62.121094 185.945312 63.535156 186.632812 64.90625 C 186.835938 65.304688 187.214844 65.714844 187.613281 65.894531 C 188.664062 66.367188 189.773438 66.714844 190.859375 67.113281 Z M 182.828125 84.078125 C 181.800781 83.714844 180.785156 83.324219 179.746094 83.007812 C 179.429688 82.914062 179.019531 82.953125 178.710938 83.074219 C 177.292969 83.625 175.894531 84.230469 174.230469 84.925781 C 177.320312 85.769531 180.09375 85.578125 182.828125 84.078125 Z M 130.027344 53.285156 C 129.734375 53.199219 129.265625 53.25 129.058594 53.441406 C 128.714844 53.765625 128.492188 54.238281 128.257812 54.671875 C 121.652344 66.777344 115.050781 78.882812 108.449219 90.992188 C 108.273438 91.316406 107.988281 91.636719 107.960938 91.976562 C 107.929688 92.414062 108.105469 92.867188 108.195312 93.3125 C 108.609375 93.152344 109.09375 93.078125 109.414062 92.804688 C 109.722656 92.542969 109.871094 92.082031 110.078125 91.703125 C 112.238281 87.738281 114.394531 83.773438 116.554688 79.808594 C 120.960938 71.71875 125.375 63.628906 129.78125 55.535156 C 130.042969 55.050781 130.273438 54.546875 130.546875 53.988281 C 130.371094 53.730469 130.246094 53.347656 130.027344 53.285156 Z M 130.027344 53.285156 " fill-opacity="1" fill-rule="nonzero"/></g><path fill="#ffffff" d="M 235.09375 220.453125 C 233.585938 220.675781 232.296875 220.816406 231.027344 221.058594 C 227.320312 221.769531 223.988281 223.351562 220.914062 225.515625 C 220.460938 225.835938 219.980469 226.128906 219.550781 226.480469 C 216.019531 229.394531 212.027344 229.851562 207.847656 228.390625 C 205.46875 227.5625 203.207031 226.382812 200.953125 225.238281 C 198.640625 224.058594 196.421875 222.703125 194.128906 221.476562 C 186.269531 217.273438 178.292969 217.714844 170.3125 221.042969 C 166.929688 222.453125 163.878906 224.46875 160.972656 226.707031 C 158.621094 228.519531 156.222656 230.273438 153.792969 231.988281 C 152.738281 232.734375 151.589844 233.367188 150.4375 233.957031 C 145.980469 236.242188 141.453125 236.417969 136.835938 234.390625 C 134.207031 233.238281 131.78125 231.777344 129.53125 230.011719 C 127.441406 228.367188 125.417969 226.632812 123.3125 225.007812 C 118.511719 221.308594 113.332031 218.339844 107.335938 217.042969 C 104.710938 216.472656 102.0625 216.351562 99.394531 216.664062 C 98.597656 216.757812 97.800781 216.832031 97.023438 216.910156 C 96.605469 215.417969 96.675781 103.316406 97.066406 101.457031 C 98.613281 101.085938 231.234375 101.011719 235.269531 101.414062 C 235.261719 141.019531 235.140625 180.65625 235.09375 220.453125 Z M 108.789062 171.664062 C 108.898438 171.609375 109.003906 171.554688 109.113281 171.503906 C 109.589844 172.191406 110.074219 172.875 110.546875 173.566406 C 114.46875 179.28125 118.390625 185 122.3125 190.714844 C 122.695312 191.273438 123.089844 192.050781 123.855469 191.773438 C 124.320312 191.601562 124.609375 190.910156 124.941406 190.425781 C 125.074219 190.230469 125.109375 189.964844 125.1875 189.730469 C 127.199219 183.945312 129.207031 178.15625 131.21875 172.375 C 131.410156 171.816406 131.636719 171.273438 131.847656 170.722656 C 132.386719 172.449219 132.589844 174.140625 132.769531 175.832031 C 133.480469 182.414062 134.183594 188.996094 134.894531 195.574219 C 134.941406 196.003906 134.9375 196.496094 135.15625 196.824219 C 135.359375 197.125 135.851562 197.425781 136.179688 197.386719 C 136.460938 197.359375 136.824219 196.878906 136.902344 196.539062 C 137.011719 196.078125 136.914062 195.558594 136.859375 195.066406 C 135.789062 185.535156 134.71875 176.007812 133.644531 166.480469 C 133.601562 166.109375 133.625 165.699219 133.457031 165.390625 C 133.308594 165.113281 132.960938 164.792969 132.675781 164.769531 C 132.386719 164.746094 131.96875 164.984375 131.78125 165.238281 C 131.539062 165.574219 131.460938 166.03125 131.316406 166.441406 C 128.925781 173.273438 126.535156 180.105469 124.140625 186.9375 C 123.925781 187.550781 123.671875 188.152344 123.355469 188.972656 C 122.828125 188.277344 122.441406 187.804688 122.09375 187.308594 C 117.816406 181.160156 113.542969 175.007812 109.265625 168.863281 C 108.949219 168.40625 108.648438 167.914062 108.238281 167.554688 C 107.632812 167.027344 106.816406 167.367188 106.765625 168.167969 C 106.722656 168.777344 106.832031 169.402344 106.917969 170.011719 C 107.992188 177.734375 109.078125 185.453125 110.160156 193.175781 C 110.417969 195.011719 110.664062 196.851562 110.953125 198.683594 C 111.050781 199.28125 111.421875 199.832031 112.070312 199.589844 C 112.378906 199.476562 112.507812 198.839844 112.667969 198.421875 C 112.726562 198.269531 112.636719 198.058594 112.609375 197.875 C 111.839844 192.609375 111.0625 187.347656 110.292969 182.082031 C 109.789062 178.609375 109.289062 175.136719 108.789062 171.664062 Z M 207.996094 182.738281 C 208.4375 182.128906 208.769531 181.628906 209.144531 181.15625 C 212.546875 176.910156 215.953125 172.667969 219.355469 168.421875 C 219.699219 167.988281 220.089844 167.558594 220.308594 167.0625 C 220.417969 166.808594 220.304688 166.269531 220.097656 166.109375 C 219.882812 165.9375 219.347656 165.9375 219.101562 166.097656 C 218.703125 166.355469 218.414062 166.792969 218.105469 167.175781 C 214.734375 171.371094 211.371094 175.566406 208 179.761719 C 207.628906 180.222656 207.226562 180.65625 206.644531 181.332031 C 206.5 180.699219 206.398438 180.367188 206.351562 180.03125 C 205.753906 175.933594 205.175781 171.835938 204.578125 167.738281 C 204.367188 166.316406 204.007812 165.792969 203.398438 166.035156 C 202.429688 166.417969 202.773438 167.21875 202.875 167.941406 C 204.066406 176.382812 205.253906 184.828125 206.441406 193.269531 C 206.5625 194.125 206.675781 194.984375 206.808594 195.839844 C 206.875 196.265625 206.886719 196.738281 207.085938 197.097656 C 207.261719 197.414062 207.671875 197.597656 207.976562 197.84375 C 208.207031 197.53125 208.65625 197.199219 208.632812 196.90625 C 208.5 195.246094 208.261719 193.59375 208.039062 191.941406 C 207.710938 189.507812 207.363281 187.074219 206.988281 184.367188 C 207.824219 184.722656 208.386719 184.945312 208.933594 185.199219 C 212.859375 187.011719 216.78125 188.832031 220.707031 190.652344 C 222.613281 191.535156 224.515625 192.425781 226.433594 193.28125 C 226.9375 193.507812 227.5625 193.707031 227.894531 193.039062 C 228.21875 192.386719 227.757812 192.007812 227.226562 191.734375 C 226.839844 191.539062 226.449219 191.359375 226.054688 191.175781 C 220.671875 188.683594 215.285156 186.195312 209.90625 183.699219 C 209.304688 183.421875 208.722656 183.105469 207.996094 182.738281 Z M 177.234375 196.769531 C 177.382812 196.015625 177.464844 195.53125 177.574219 195.050781 C 179.464844 186.921875 181.359375 178.792969 183.253906 170.664062 C 183.351562 170.242188 183.550781 169.804688 183.503906 169.398438 C 183.453125 168.976562 183.265625 168.386719 182.953125 168.222656 C 182.421875 167.945312 182.042969 168.398438 181.878906 168.921875 C 181.746094 169.332031 181.640625 169.753906 181.542969 170.175781 C 179.519531 178.910156 177.492188 187.644531 175.472656 196.378906 C 175.117188 197.90625 175.203125 198.105469 176.644531 198.488281 C 180.289062 199.464844 183.941406 200.402344 187.59375 201.347656 C 187.886719 201.425781 188.234375 201.566406 188.488281 201.480469 C 188.789062 201.378906 189.121094 201.109375 189.242188 200.828125 C 189.324219 200.640625 189.136719 200.195312 188.9375 200.058594 C 188.59375 199.824219 188.15625 199.707031 187.742188 199.597656 C 185.472656 198.988281 183.199219 198.402344 180.925781 197.796875 C 179.746094 197.484375 178.570312 197.140625 177.234375 196.769531 Z M 161.722656 147.742188 C 161.601562 145.648438 161.535156 143.921875 161.390625 142.203125 C 161.238281 140.402344 160.78125 138.664062 159.800781 137.132812 C 158.933594 135.777344 157.730469 134.746094 156.019531 134.871094 C 154.1875 135 153.007812 136.132812 152.304688 137.796875 C 151.730469 139.144531 151.613281 140.5625 151.832031 141.972656 C 152.589844 146.929688 155.105469 150.820312 159.1875 153.691406 C 160.582031 154.671875 161.285156 154.304688 161.4375 152.542969 C 161.589844 150.828125 161.644531 149.101562 161.722656 147.742188 Z M 151.605469 191.984375 C 151.765625 192.199219 152.027344 192.554688 152.292969 192.910156 C 152.640625 192.628906 153.042969 192.386719 153.324219 192.046875 C 153.503906 191.832031 153.515625 191.472656 153.589844 191.171875 C 155.757812 182.421875 157.925781 173.671875 160.085938 164.917969 C 160.1875 164.5 160.328125 164.054688 160.269531 163.648438 C 160.226562 163.359375 159.914062 162.941406 159.660156 162.886719 C 159.398438 162.835938 158.953125 163.085938 158.785156 163.335938 C 158.550781 163.675781 158.484375 164.136719 158.382812 164.554688 C 156.21875 173.242188 154.0625 181.933594 151.90625 190.621094 C 151.816406 190.980469 151.746094 191.34375 151.605469 191.984375 Z M 174.160156 146.679688 C 174.164062 144.8125 172.769531 143.613281 170.859375 143.871094 C 169.289062 144.082031 168.179688 145.042969 167.199219 146.195312 C 165.445312 148.261719 164.585938 150.785156 163.644531 153.261719 C 163.5 153.636719 163.613281 154.242188 163.835938 154.59375 C 164.167969 155.117188 164.746094 155.105469 165.324219 154.84375 C 167.980469 153.636719 170.503906 152.226562 172.554688 150.109375 C 173.472656 149.164062 174.15625 148.070312 174.160156 146.679688 Z M 97.207031 99.40625 C 97.582031 98.632812 97.832031 98.082031 98.117188 97.546875 C 106.578125 81.589844 115.066406 65.640625 123.480469 49.652344 C 124.222656 48.238281 125.042969 47.789062 126.617188 47.796875 C 157.015625 47.988281 187.417969 48.109375 217.820312 48.257812 C 229.398438 48.3125 240.976562 48.390625 252.554688 48.460938 C 253.105469 48.464844 253.65625 48.460938 254.070312 48.460938 C 254.246094 48.621094 254.304688 48.652344 254.328125 48.703125 C 254.355469 48.753906 254.359375 48.820312 254.363281 48.882812 C 254.363281 48.941406 254.367188 49.007812 254.347656 49.0625 C 253.792969 50.574219 253.25 52.085938 252.675781 53.585938 C 246.851562 68.835938 241.019531 84.082031 235.160156 99.40625 C 189.234375 99.40625 143.371094 99.40625 97.207031 99.40625 Z M 193.691406 71.238281 C 193.679688 65.195312 190.1875 60.40625 184.4375 58.527344 C 182.558594 57.914062 180.703125 57.222656 178.816406 56.632812 C 177.878906 56.339844 176.90625 56.101562 175.929688 55.988281 C 167.511719 55.015625 160.242188 61.316406 158.742188 68.890625 C 157.628906 74.515625 159.648438 80.097656 164.222656 82.828125 C 167.789062 84.957031 171.789062 86.386719 175.847656 86.996094 C 185.128906 88.394531 193.707031 80.621094 193.691406 71.238281 Z M 130.546875 53.988281 C 130.371094 53.730469 130.246094 53.347656 130.027344 53.285156 C 129.734375 53.199219 129.265625 53.25 129.058594 53.441406 C 128.714844 53.765625 128.492188 54.238281 128.257812 54.671875 C 121.652344 66.777344 115.050781 78.882812 108.449219 90.992188 C 108.273438 91.316406 107.988281 91.636719 107.960938 91.976562 C 107.929688 92.414062 108.105469 92.867188 108.195312 93.3125 C 108.609375 93.152344 109.09375 93.078125 109.414062 92.804688 C 109.722656 92.542969 109.871094 92.082031 110.078125 91.703125 C 112.238281 87.738281 114.394531 83.773438 116.554688 79.808594 C 120.960938 71.71875 125.375 63.628906 129.78125 55.535156 C 130.042969 55.050781 130.273438 54.546875 130.546875 53.988281 Z M 237.03125 102.546875 C 237.011719 113.746094 236.988281 124.945312 236.96875 136.144531 C 236.929688 163.679688 236.886719 191.210938 236.847656 218.746094 C 236.847656 219.238281 236.792969 219.746094 236.882812 220.226562 C 236.945312 220.550781 237.148438 221 237.40625 221.109375 C 239.683594 222.050781 241.851562 223.316406 244.390625 223.484375 C 248.96875 223.792969 253.148438 222.605469 256.722656 219.785156 C 260.164062 217.0625 263.417969 214.101562 266.726562 211.214844 C 269.355469 208.921875 272.09375 206.820312 275.53125 205.871094 C 276.476562 205.609375 277.4375 205.410156 278.558594 205.140625 C 278.640625 167.542969 278.714844 129.976562 278.746094 92.152344 C 264.707031 95.019531 250.976562 97.824219 237.03125 100.671875 C 237.03125 101.445312 237.03125 101.996094 237.03125 102.546875 Z M 237.03125 102.546875 " fill-opacity="1" fill-rule="nonzero"/><path fill="#afd4fa" d="M 96.648438 356.175781 C 96.648438 310.257812 96.648438 264.664062 96.648438 218.824219 C 98.042969 218.640625 99.296875 218.410156 100.5625 218.316406 C 104.859375 218 108.925781 218.921875 112.828125 220.679688 C 116.746094 222.449219 120.304688 224.773438 123.632812 227.492188 C 125.882812 229.332031 128.148438 231.160156 130.5 232.867188 C 133.066406 234.734375 135.90625 236.074219 138.976562 236.964844 C 142.132812 237.878906 145.253906 237.851562 148.273438 236.699219 C 150.398438 235.890625 152.5 234.898438 154.402344 233.664062 C 157.25 231.8125 159.917969 229.679688 162.648438 227.652344 C 166.554688 224.757812 170.691406 222.332031 175.457031 221.113281 C 181.640625 219.535156 187.601562 219.921875 193.273438 223.019531 C 195.71875 224.355469 198.15625 225.699219 200.5625 227.089844 C 203.421875 228.742188 206.390625 230.015625 209.667969 230.652344 C 213.371094 231.371094 216.652344 230.632812 219.710938 228.519531 C 221.390625 227.363281 223.070312 226.1875 224.835938 225.175781 C 227.886719 223.425781 231.214844 222.554688 234.625 222.347656 C 234.78125 222.496094 234.828125 222.535156 234.867188 222.578125 C 234.910156 222.625 234.976562 222.667969 234.980469 222.71875 C 235.023438 223.085938 235.082031 223.457031 235.082031 223.824219 C 235.015625 267.828125 234.949219 311.832031 234.875 355.835938 C 234.875 355.941406 234.769531 356.042969 234.699219 356.175781 C 188.730469 356.175781 142.75 356.175781 96.648438 356.175781 Z M 157.425781 46.179688 C 161.5 46.535156 174.917969 46.414062 176.195312 46.019531 C 176.195312 37.015625 176.195312 28.019531 176.195312 18.9375 C 169.84375 18.9375 163.617188 18.9375 157.289062 18.9375 C 156.84375 21.480469 156.984375 44.949219 157.425781 46.179688 Z M 198.667969 46.285156 C 201.820312 46.660156 215.570312 46.578125 216.949219 46.175781 C 216.949219 37.140625 216.949219 28.082031 216.949219 18.914062 C 210.820312 18.914062 204.796875 18.914062 198.667969 18.914062 C 198.667969 28.195312 198.667969 37.25 198.667969 46.285156 Z M 255.039062 45.8125 C 255.238281 40.5 255.488281 35.1875 255.597656 29.875 C 255.648438 27.414062 255.625 24.933594 254.734375 22.550781 C 253.777344 19.988281 252.378906 18.839844 249.628906 18.785156 C 246.414062 18.722656 243.195312 18.777344 239.980469 18.796875 C 239.753906 18.796875 239.53125 18.914062 239.347656 18.964844 C 238.953125 21.917969 239.097656 45.289062 239.511719 46.597656 C 244.617188 46.597656 249.730469 46.597656 254.90625 46.597656 C 254.960938 46.277344 255.03125 46.046875 255.039062 45.8125 Z M 237.289062 98.824219 C 250.566406 96.109375 263.414062 93.484375 276.265625 90.855469 C 276.28125 90.730469 276.300781 90.605469 276.320312 90.480469 C 265.972656 86.496094 255.628906 82.511719 245.058594 78.441406 C 242.449219 85.289062 239.9375 91.878906 237.289062 98.824219 Z M 130.679688 18.867188 C 127.503906 18.957031 125.785156 20.308594 124.964844 23.390625 C 124.773438 24.101562 124.675781 24.84375 124.601562 25.578125 C 123.984375 31.9375 124.371094 38.296875 124.644531 44.65625 C 124.660156 45.074219 124.789062 45.484375 124.878906 45.996094 C 128.003906 45.996094 131.0625 45.996094 134.226562 45.996094 C 134.226562 36.960938 134.226562 28.03125 134.226562 18.859375 C 132.890625 18.859375 131.785156 18.835938 130.679688 18.867188 Z M 172.570312 83.160156 C 179.828125 82.492188 185.832031 75.726562 185.449219 68.433594 C 185.132812 62.417969 181.019531 57.757812 174.269531 57.613281 C 166.78125 57.449219 160.253906 64.167969 160.214844 71.746094 C 160.046875 79.121094 166.191406 83.746094 172.570312 83.160156 Z M 172.570312 83.160156 " fill-opacity="1" fill-rule="nonzero"/><path fill="#85b4f0" d="M 278.445312 207.078125 C 278.445312 253.347656 278.445312 299.378906 278.445312 345.625 C 264.578125 349.007812 250.785156 352.367188 236.84375 355.765625 C 236.84375 311.375 236.84375 267.164062 236.84375 222.757812 C 237.503906 222.996094 237.976562 223.109375 238.394531 223.324219 C 245.238281 226.808594 251.636719 225.5 257.609375 221.3125 C 260.382812 219.363281 262.851562 216.976562 265.453125 214.78125 C 267.390625 213.148438 269.257812 211.421875 271.269531 209.882812 C 273.308594 208.324219 275.664062 207.40625 278.445312 207.078125 Z M 155.261719 46.117188 C 155.261719 37.03125 155.261719 28.046875 155.261719 18.863281 C 148.832031 18.90625 142.515625 18.773438 136.179688 18.945312 C 136.179688 28.0625 136.179688 36.941406 136.179688 46.117188 C 142.636719 46.117188 148.910156 46.117188 155.261719 46.117188 Z M 237.488281 46.507812 C 237.488281 37.25 237.488281 28.082031 237.480469 18.90625 C 231.109375 18.90625 225.015625 18.90625 218.828125 18.90625 C 218.828125 28.105469 218.828125 37.167969 218.828125 46.507812 C 225.125 46.507812 231.210938 46.507812 237.488281 46.507812 Z M 196.441406 18.957031 C 192.953125 18.601562 179.464844 18.765625 178.226562 19.164062 C 178.226562 28.183594 178.226562 37.1875 178.226562 46.296875 C 184.410156 46.296875 190.453125 46.296875 196.609375 46.296875 C 196.980469 42.726562 196.828125 20.265625 196.441406 18.957031 Z M 245.695312 76.808594 C 256.402344 80.925781 266.863281 84.949219 277.320312 88.972656 C 277.394531 88.871094 277.46875 88.769531 277.542969 88.667969 C 270.425781 75.824219 263.308594 62.984375 256 49.804688 C 252.476562 59.035156 249.105469 67.875 245.695312 76.808594 Z M 159.378906 140.808594 C 159.234375 140.089844 158.980469 139.375 158.660156 138.714844 C 158.140625 137.636719 157.453125 136.636719 156.082031 136.632812 C 154.996094 136.632812 153.976562 137.828125 153.648438 139.328125 C 153.609375 139.507812 153.578125 139.695312 153.570312 139.878906 C 153.386719 144.902344 155.714844 148.675781 159.566406 151.714844 C 159.910156 148.007812 160.109375 144.394531 159.378906 140.808594 Z M 171.609375 148.515625 C 172.535156 147.390625 172.664062 146.425781 172.070312 145.859375 C 171.480469 145.300781 170.515625 145.449219 169.410156 146.390625 C 167.570312 147.960938 166.597656 150.058594 165.953125 152.382812 C 168.117188 151.429688 170.121094 150.320312 171.609375 148.515625 Z M 184.871094 82.882812 C 185.226562 82.96875 185.75 82.851562 186.046875 82.632812 C 188.09375 81.101562 189.695312 79.210938 190.75 76.699219 C 189.140625 76.058594 187.671875 75.476562 186.386719 74.96875 C 184.636719 77.285156 182.992188 79.46875 181.238281 81.789062 C 182.429688 82.15625 183.636719 82.574219 184.871094 82.882812 Z M 191.867188 70.082031 C 191.839844 69.726562 191.550781 69.21875 191.246094 69.085938 C 189.980469 68.527344 188.660156 68.082031 187.292969 67.574219 C 187.113281 69.613281 186.949219 71.421875 186.777344 73.375 C 188.210938 73.925781 189.679688 74.488281 191.285156 75.101562 C 191.980469 73.269531 191.988281 71.675781 191.867188 70.082031 Z M 191.121094 66.789062 C 189.890625 63.796875 187.820312 61.6875 184.589844 60.484375 C 185.335938 62.121094 185.945312 63.535156 186.632812 64.90625 C 186.835938 65.304688 187.214844 65.714844 187.613281 65.894531 C 188.664062 66.367188 189.773438 66.714844 190.859375 67.113281 C 190.945312 67.007812 191.035156 66.898438 191.121094 66.789062 Z M 179.746094 83.007812 C 179.429688 82.914062 179.019531 82.953125 178.710938 83.074219 C 177.292969 83.625 175.894531 84.230469 174.230469 84.925781 C 177.320312 85.769531 180.09375 85.578125 182.828125 84.078125 C 181.800781 83.714844 180.785156 83.324219 179.746094 83.007812 Z M 179.746094 83.007812 " fill-opacity="1" fill-rule="nonzero"/><g clip-path="url(#2caf78488b)"><path fill="#000000" d="M 95.039062 228.214844 C 95.039062 202.34375 95.03125 176.476562 95.039062 150.605469 C 95.046875 135.195312 95.074219 119.78125 95.09375 104.371094 C 95.09375 104 95.152344 103.617188 95.085938 103.257812 C 94.589844 100.664062 95.558594 98.492188 96.757812 96.25 C 105.285156 80.324219 113.71875 64.351562 122.210938 48.40625 C 122.839844 47.222656 123.179688 46.09375 123.078125 44.71875 C 122.601562 38.484375 122.332031 32.242188 122.792969 25.992188 C 122.933594 24.125 123.242188 22.316406 124.175781 20.648438 C 125.214844 18.804688 126.707031 17.585938 128.828125 17.347656 C 130.546875 17.152344 132.28125 17.050781 134.007812 17.046875 C 154.8125 17.03125 175.617188 17.050781 196.417969 17.035156 C 213.632812 17.027344 230.84375 16.976562 248.058594 16.972656 C 249.34375 16.972656 250.644531 17.15625 251.914062 17.375 C 253.765625 17.6875 255 18.828125 255.808594 20.492188 C 256.683594 22.304688 257.226562 24.222656 257.214844 26.214844 C 257.179688 31.347656 257.203125 36.492188 256.871094 41.609375 C 256.617188 45.503906 257.34375 48.882812 259.332031 52.335938 C 266.058594 64.023438 272.453125 75.902344 279.039062 87.671875 C 280.070312 89.511719 280.582031 91.308594 280.550781 93.453125 C 280.414062 102.671875 280.4375 111.894531 280.414062 121.117188 C 280.390625 132.816406 280.371094 144.511719 280.359375 156.210938 C 280.316406 192.972656 280.277344 229.738281 280.242188 266.5 C 280.21875 292.25 280.207031 317.996094 280.183594 343.742188 C 280.179688 347.792969 280.226562 347.035156 276.964844 347.824219 C 263.917969 350.976562 250.875 354.125 237.847656 357.351562 C 235.960938 357.816406 234.109375 358.046875 232.179688 358.042969 C 189.394531 357.980469 146.605469 357.9375 103.820312 357.894531 C 101.59375 357.890625 99.363281 357.941406 97.136719 357.886719 C 94.847656 357.832031 94.78125 357.722656 94.78125 355.402344 C 94.808594 335.96875 94.851562 316.535156 94.863281 297.101562 C 94.875 274.140625 94.863281 251.179688 94.863281 228.214844 C 94.921875 228.214844 94.980469 228.214844 95.039062 228.214844 Z M 96.648438 356.175781 C 142.75 356.175781 188.730469 356.175781 234.699219 356.175781 C 234.769531 356.042969 234.875 355.941406 234.875 355.835938 C 234.949219 311.832031 235.015625 267.828125 235.082031 223.824219 C 235.082031 223.457031 235.023438 223.085938 234.980469 222.71875 C 234.976562 222.667969 234.910156 222.625 234.867188 222.578125 C 234.828125 222.535156 234.78125 222.496094 234.625 222.347656 C 231.214844 222.554688 227.886719 223.425781 224.835938 225.175781 C 223.070312 226.1875 221.390625 227.363281 219.710938 228.519531 C 216.652344 230.632812 213.371094 231.371094 209.667969 230.652344 C 206.390625 230.015625 203.421875 228.742188 200.5625 227.089844 C 198.15625 225.699219 195.71875 224.355469 193.273438 223.019531 C 187.601562 219.921875 181.640625 219.535156 175.457031 221.113281 C 170.691406 222.332031 166.554688 224.757812 162.648438 227.652344 C 159.917969 229.679688 157.25 231.8125 154.402344 233.664062 C 152.5 234.898438 150.398438 235.890625 148.273438 236.699219 C 145.253906 237.851562 142.132812 237.878906 138.976562 236.964844 C 135.90625 236.074219 133.066406 234.734375 130.5 232.867188 C 128.148438 231.160156 125.882812 229.332031 123.632812 227.492188 C 120.304688 224.773438 116.746094 222.449219 112.828125 220.679688 C 108.925781 218.921875 104.859375 218 100.5625 218.316406 C 99.296875 218.410156 98.042969 218.640625 96.648438 218.824219 C 96.648438 264.664062 96.648438 310.257812 96.648438 356.175781 Z M 235.09375 220.453125 C 235.140625 180.65625 235.261719 141.019531 235.269531 101.414062 C 231.234375 101.011719 98.613281 101.085938 97.066406 101.457031 C 96.675781 103.316406 96.605469 215.417969 97.023438 216.910156 C 97.800781 216.832031 98.597656 216.757812 99.394531 216.664062 C 102.0625 216.351562 104.710938 216.472656 107.335938 217.042969 C 113.332031 218.339844 118.511719 221.308594 123.3125 225.007812 C 125.417969 226.632812 127.441406 228.367188 129.53125 230.011719 C 131.78125 231.777344 134.207031 233.238281 136.835938 234.390625 C 141.453125 236.417969 145.980469 236.242188 150.4375 233.957031 C 151.589844 233.367188 152.738281 232.734375 153.792969 231.988281 C 156.222656 230.273438 158.621094 228.519531 160.972656 226.707031 C 163.878906 224.46875 166.929688 222.453125 170.3125 221.042969 C 178.292969 217.714844 186.269531 217.273438 194.128906 221.476562 C 196.421875 222.703125 198.640625 224.058594 200.953125 225.238281 C 203.207031 226.382812 205.46875 227.5625 207.847656 228.390625 C 212.027344 229.851562 216.019531 229.394531 219.550781 226.480469 C 219.980469 226.128906 220.460938 225.835938 220.914062 225.515625 C 223.988281 223.351562 227.320312 221.769531 231.027344 221.058594 C 232.296875 220.816406 233.585938 220.675781 235.09375 220.453125 Z M 97.207031 99.40625 C 143.371094 99.40625 189.234375 99.40625 235.160156 99.40625 C 241.019531 84.082031 246.851562 68.835938 252.675781 53.585938 C 253.25 52.085938 253.792969 50.574219 254.347656 49.0625 C 254.367188 49.007812 254.363281 48.941406 254.363281 48.882812 C 254.359375 48.820312 254.355469 48.753906 254.328125 48.703125 C 254.304688 48.652344 254.246094 48.621094 254.070312 48.460938 C 253.65625 48.460938 253.105469 48.464844 252.554688 48.460938 C 240.976562 48.390625 229.398438 48.3125 217.820312 48.257812 C 187.417969 48.109375 157.015625 47.988281 126.617188 47.796875 C 125.042969 47.789062 124.222656 48.238281 123.480469 49.652344 C 115.066406 65.640625 106.578125 81.589844 98.117188 97.546875 C 97.832031 98.082031 97.582031 98.632812 97.207031 99.40625 Z M 278.445312 207.078125 C 275.664062 207.40625 273.308594 208.324219 271.269531 209.882812 C 269.257812 211.421875 267.390625 213.148438 265.453125 214.78125 C 262.851562 216.976562 260.382812 219.363281 257.609375 221.3125 C 251.636719 225.5 245.238281 226.808594 238.394531 223.324219 C 237.976562 223.109375 237.503906 222.996094 236.84375 222.757812 C 236.84375 267.164062 236.84375 311.375 236.84375 355.765625 C 250.785156 352.367188 264.578125 349.007812 278.445312 345.625 C 278.445312 299.378906 278.445312 253.347656 278.445312 207.078125 Z M 237.03125 100.671875 C 237.03125 101.445312 237.03125 101.996094 237.03125 102.546875 C 237.011719 113.746094 236.988281 124.945312 236.96875 136.144531 C 236.929688 163.679688 236.886719 191.210938 236.847656 218.746094 C 236.847656 219.238281 236.792969 219.746094 236.882812 220.226562 C 236.945312 220.550781 237.148438 221 237.40625 221.109375 C 239.683594 222.050781 241.851562 223.316406 244.390625 223.484375 C 248.96875 223.792969 253.148438 222.605469 256.722656 219.785156 C 260.164062 217.0625 263.417969 214.101562 266.726562 211.214844 C 269.355469 208.921875 272.09375 206.820312 275.53125 205.871094 C 276.476562 205.609375 277.4375 205.410156 278.558594 205.140625 C 278.640625 167.542969 278.714844 129.976562 278.746094 92.152344 C 264.707031 95.019531 250.976562 97.824219 237.03125 100.671875 Z M 157.289062 18.9375 C 156.84375 21.480469 156.984375 44.949219 157.425781 46.179688 C 161.5 46.535156 174.917969 46.414062 176.195312 46.019531 C 176.195312 37.015625 176.195312 28.019531 176.195312 18.9375 C 169.84375 18.9375 163.617188 18.9375 157.289062 18.9375 Z M 136.179688 46.117188 C 142.636719 46.117188 148.910156 46.117188 155.261719 46.117188 C 155.261719 37.03125 155.261719 28.046875 155.261719 18.863281 C 148.832031 18.90625 142.515625 18.773438 136.179688 18.945312 C 136.179688 28.0625 136.179688 36.941406 136.179688 46.117188 Z M 218.828125 46.507812 C 225.125 46.507812 231.210938 46.507812 237.488281 46.507812 C 237.488281 37.25 237.488281 28.082031 237.480469 18.90625 C 231.109375 18.90625 225.015625 18.90625 218.828125 18.90625 C 218.828125 28.105469 218.828125 37.167969 218.828125 46.507812 Z M 196.609375 46.296875 C 196.980469 42.726562 196.828125 20.265625 196.441406 18.957031 C 192.953125 18.601562 179.464844 18.765625 178.226562 19.164062 C 178.226562 28.183594 178.226562 37.1875 178.226562 46.296875 C 184.410156 46.296875 190.453125 46.296875 196.609375 46.296875 Z M 198.667969 18.914062 C 198.667969 28.195312 198.667969 37.25 198.667969 46.285156 C 201.820312 46.660156 215.570312 46.578125 216.949219 46.175781 C 216.949219 37.140625 216.949219 28.082031 216.949219 18.914062 C 210.820312 18.914062 204.796875 18.914062 198.667969 18.914062 Z M 256 49.804688 C 252.476562 59.035156 249.105469 67.875 245.695312 76.808594 C 256.402344 80.925781 266.863281 84.949219 277.320312 88.972656 C 277.394531 88.871094 277.46875 88.769531 277.542969 88.667969 C 270.425781 75.824219 263.308594 62.984375 256 49.804688 Z M 254.90625 46.597656 C 254.960938 46.277344 255.03125 46.046875 255.039062 45.8125 C 255.238281 40.5 255.488281 35.1875 255.597656 29.875 C 255.648438 27.414062 255.625 24.933594 254.734375 22.550781 C 253.777344 19.988281 252.378906 18.839844 249.628906 18.785156 C 246.414062 18.722656 243.195312 18.777344 239.980469 18.796875 C 239.753906 18.796875 239.53125 18.914062 239.347656 18.964844 C 238.953125 21.917969 239.097656 45.289062 239.511719 46.597656 C 244.617188 46.597656 249.730469 46.597656 254.90625 46.597656 Z M 245.058594 78.441406 C 242.449219 85.289062 239.9375 91.878906 237.289062 98.824219 C 250.566406 96.109375 263.414062 93.484375 276.265625 90.855469 C 276.28125 90.730469 276.300781 90.605469 276.320312 90.480469 C 265.972656 86.496094 255.628906 82.511719 245.058594 78.441406 Z M 134.226562 18.859375 C 132.890625 18.859375 131.785156 18.835938 130.679688 18.867188 C 127.503906 18.957031 125.785156 20.308594 124.964844 23.390625 C 124.773438 24.101562 124.675781 24.84375 124.601562 25.578125 C 123.984375 31.9375 124.371094 38.296875 124.644531 44.65625 C 124.660156 45.074219 124.789062 45.484375 124.878906 45.996094 C 128.003906 45.996094 131.0625 45.996094 134.226562 45.996094 C 134.226562 36.960938 134.226562 28.03125 134.226562 18.859375 Z M 109.113281 171.503906 C 109.589844 172.191406 110.074219 172.875 110.546875 173.566406 C 114.46875 179.28125 118.390625 185 122.3125 190.714844 C 122.695312 191.273438 123.089844 192.050781 123.855469 191.773438 C 124.320312 191.601562 124.609375 190.910156 124.941406 190.425781 C 125.074219 190.230469 125.109375 189.964844 125.1875 189.730469 C 127.199219 183.945312 129.207031 178.15625 131.21875 172.375 C 131.410156 171.816406 131.636719 171.273438 131.847656 170.722656 C 132.386719 172.449219 132.589844 174.140625 132.769531 175.832031 C 133.480469 182.414062 134.183594 188.996094 134.894531 195.574219 C 134.941406 196.003906 134.9375 196.496094 135.15625 196.824219 C 135.359375 197.125 135.851562 197.425781 136.179688 197.386719 C 136.460938 197.359375 136.824219 196.878906 136.902344 196.539062 C 137.011719 196.078125 136.914062 195.558594 136.859375 195.066406 C 135.789062 185.535156 134.71875 176.007812 133.644531 166.480469 C 133.601562 166.109375 133.625 165.699219 133.457031 165.390625 C 133.308594 165.113281 132.960938 164.792969 132.675781 164.769531 C 132.386719 164.746094 131.96875 164.984375 131.78125 165.238281 C 131.539062 165.574219 131.460938 166.03125 131.316406 166.441406 C 128.925781 173.273438 126.535156 180.105469 124.140625 186.9375 C 123.925781 187.550781 123.671875 188.152344 123.355469 188.972656 C 122.828125 188.277344 122.441406 187.804688 122.09375 187.308594 C 117.816406 181.160156 113.542969 175.007812 109.265625 168.863281 C 108.949219 168.40625 108.648438 167.914062 108.238281 167.554688 C 107.632812 167.027344 106.816406 167.367188 106.765625 168.167969 C 106.722656 168.777344 106.832031 169.402344 106.917969 170.011719 C 107.992188 177.734375 109.078125 185.453125 110.160156 193.175781 C 110.417969 195.011719 110.664062 196.851562 110.953125 198.683594 C 111.050781 199.28125 111.421875 199.832031 112.070312 199.589844 C 112.378906 199.476562 112.507812 198.839844 112.667969 198.421875 C 112.726562 198.269531 112.636719 198.058594 112.609375 197.875 C 111.839844 192.609375 111.0625 187.347656 110.292969 182.082031 C 109.789062 178.609375 109.289062 175.136719 108.789062 171.664062 C 108.898438 171.609375 109.003906 171.554688 109.113281 171.503906 Z M 209.144531 181.15625 C 212.546875 176.910156 215.953125 172.667969 219.355469 168.421875 C 219.699219 167.988281 220.089844 167.558594 220.308594 167.0625 C 220.417969 166.808594 220.304688 166.269531 220.097656 166.109375 C 219.882812 165.9375 219.347656 165.9375 219.101562 166.097656 C 218.703125 166.355469 218.414062 166.792969 218.105469 167.175781 C 214.734375 171.371094 211.371094 175.566406 208 179.761719 C 207.628906 180.222656 207.226562 180.65625 206.644531 181.332031 C 206.5 180.699219 206.398438 180.367188 206.351562 180.03125 C 205.753906 175.933594 205.175781 171.835938 204.578125 167.738281 C 204.367188 166.316406 204.007812 165.792969 203.398438 166.035156 C 202.429688 166.417969 202.773438 167.21875 202.875 167.941406 C 204.066406 176.382812 205.253906 184.828125 206.441406 193.269531 C 206.5625 194.125 206.675781 194.984375 206.808594 195.839844 C 206.875 196.265625 206.886719 196.738281 207.085938 197.097656 C 207.261719 197.414062 207.671875 197.597656 207.976562 197.84375 C 208.207031 197.53125 208.65625 197.199219 208.632812 196.90625 C 208.5 195.246094 208.261719 193.59375 208.039062 191.941406 C 207.710938 189.507812 207.363281 187.074219 206.988281 184.367188 C 207.824219 184.722656 208.386719 184.945312 208.933594 185.199219 C 212.859375 187.011719 216.78125 188.832031 220.707031 190.652344 C 222.613281 191.535156 224.515625 192.425781 226.433594 193.28125 C 226.9375 193.507812 227.5625 193.707031 227.894531 193.039062 C 228.21875 192.386719 227.757812 192.007812 227.226562 191.734375 C 226.839844 191.539062 226.449219 191.359375 226.054688 191.175781 C 220.671875 188.683594 215.285156 186.195312 209.90625 183.699219 C 209.304688 183.421875 208.722656 183.105469 207.996094 182.738281 C 208.4375 182.128906 208.769531 181.628906 209.144531 181.15625 Z M 177.574219 195.050781 C 179.464844 186.921875 181.359375 178.792969 183.253906 170.664062 C 183.351562 170.242188 183.550781 169.804688 183.503906 169.398438 C 183.453125 168.976562 183.265625 168.386719 182.953125 168.222656 C 182.421875 167.945312 182.042969 168.398438 181.878906 168.921875 C 181.746094 169.332031 181.640625 169.753906 181.542969 170.175781 C 179.519531 178.910156 177.492188 187.644531 175.472656 196.378906 C 175.117188 197.90625 175.203125 198.105469 176.644531 198.488281 C 180.289062 199.464844 183.941406 200.402344 187.59375 201.347656 C 187.886719 201.425781 188.234375 201.566406 188.488281 201.480469 C 188.789062 201.378906 189.121094 201.109375 189.242188 200.828125 C 189.324219 200.640625 189.136719 200.195312 188.9375 200.058594 C 188.59375 199.824219 188.15625 199.707031 187.742188 199.597656 C 185.472656 198.988281 183.199219 198.402344 180.925781 197.796875 C 179.746094 197.484375 178.570312 197.140625 177.234375 196.769531 C 177.382812 196.015625 177.464844 195.53125 177.574219 195.050781 Z M 161.722656 147.742188 C 161.644531 149.101562 161.589844 150.828125 161.4375 152.542969 C 161.285156 154.304688 160.582031 154.671875 159.1875 153.691406 C 155.105469 150.820312 152.589844 146.929688 151.832031 141.972656 C 151.613281 140.5625 151.730469 139.144531 152.304688 137.796875 C 153.007812 136.132812 154.1875 135 156.019531 134.871094 C 157.730469 134.746094 158.933594 135.777344 159.800781 137.132812 C 160.78125 138.664062 161.238281 140.402344 161.390625 142.203125 C 161.535156 143.921875 161.601562 145.648438 161.722656 147.742188 Z M 159.566406 151.714844 C 159.910156 148.007812 160.109375 144.394531 159.378906 140.808594 C 159.234375 140.089844 158.980469 139.375 158.660156 138.714844 C 158.140625 137.636719 157.453125 136.636719 156.082031 136.632812 C 154.996094 136.632812 153.976562 137.828125 153.648438 139.328125 C 153.609375 139.507812 153.578125 139.695312 153.570312 139.878906 C 153.386719 144.902344 155.714844 148.675781 159.566406 151.714844 Z M 152.292969 192.910156 C 152.640625 192.628906 153.042969 192.386719 153.324219 192.046875 C 153.503906 191.832031 153.515625 191.472656 153.589844 191.171875 C 155.757812 182.421875 157.925781 173.671875 160.085938 164.917969 C 160.1875 164.5 160.328125 164.054688 160.269531 163.648438 C 160.226562 163.359375 159.914062 162.941406 159.660156 162.886719 C 159.398438 162.835938 158.953125 163.085938 158.785156 163.335938 C 158.550781 163.675781 158.484375 164.136719 158.382812 164.554688 C 156.21875 173.242188 154.0625 181.933594 151.90625 190.621094 C 151.816406 190.980469 151.746094 191.34375 151.605469 191.984375 C 151.765625 192.199219 152.027344 192.554688 152.292969 192.910156 Z M 174.160156 146.679688 C 174.15625 148.070312 173.472656 149.164062 172.554688 150.109375 C 170.503906 152.226562 167.980469 153.636719 165.324219 154.84375 C 164.746094 155.105469 164.167969 155.117188 163.835938 154.59375 C 163.613281 154.242188 163.5 153.636719 163.644531 153.261719 C 164.585938 150.785156 165.445312 148.261719 167.199219 146.195312 C 168.179688 145.042969 169.289062 144.082031 170.859375 143.871094 C 172.769531 143.613281 174.164062 144.8125 174.160156 146.679688 Z M 165.953125 152.382812 C 168.117188 151.429688 170.121094 150.320312 171.609375 148.515625 C 172.535156 147.390625 172.664062 146.425781 172.070312 145.859375 C 171.480469 145.300781 170.515625 145.449219 169.410156 146.390625 C 167.570312 147.960938 166.597656 150.058594 165.953125 152.382812 Z M 193.691406 71.238281 C 193.707031 80.621094 185.128906 88.394531 175.847656 86.996094 C 171.789062 86.386719 167.789062 84.957031 164.222656 82.828125 C 159.648438 80.097656 157.628906 74.515625 158.742188 68.890625 C 160.242188 61.316406 167.511719 55.015625 175.929688 55.988281 C 176.90625 56.101562 177.878906 56.339844 178.816406 56.632812 C 180.703125 57.222656 182.558594 57.914062 184.4375 58.527344 C 190.1875 60.40625 193.679688 65.195312 193.691406 71.238281 Z M 160.214844 71.746094 C 160.046875 79.121094 166.191406 83.746094 172.570312 83.160156 C 179.828125 82.492188 185.832031 75.726562 185.449219 68.433594 C 185.132812 62.417969 181.019531 57.757812 174.269531 57.613281 C 166.78125 57.449219 160.253906 64.167969 160.214844 71.746094 Z M 181.238281 81.789062 C 182.429688 82.15625 183.636719 82.574219 184.871094 82.882812 C 185.226562 82.96875 185.75 82.851562 186.046875 82.632812 C 188.09375 81.101562 189.695312 79.210938 190.75 76.699219 C 189.140625 76.058594 187.671875 75.476562 186.386719 74.96875 C 184.636719 77.285156 182.992188 79.46875 181.238281 81.789062 Z M 191.285156 75.101562 C 191.980469 73.269531 191.988281 71.675781 191.867188 70.082031 C 191.839844 69.726562 191.550781 69.21875 191.246094 69.085938 C 189.980469 68.527344 188.660156 68.082031 187.292969 67.574219 C 187.113281 69.613281 186.949219 71.421875 186.777344 73.375 C 188.210938 73.925781 189.679688 74.488281 191.285156 75.101562 Z M 190.859375 67.113281 C 190.945312 67.007812 191.035156 66.898438 191.121094 66.789062 C 189.890625 63.796875 187.820312 61.6875 184.589844 60.484375 C 185.335938 62.121094 185.945312 63.535156 186.632812 64.90625 C 186.835938 65.304688 187.214844 65.714844 187.613281 65.894531 C 188.664062 66.367188 189.773438 66.714844 190.859375 67.113281 Z M 182.828125 84.078125 C 181.800781 83.714844 180.785156 83.324219 179.746094 83.007812 C 179.429688 82.914062 179.019531 82.953125 178.710938 83.074219 C 177.292969 83.625 175.894531 84.230469 174.230469 84.925781 C 177.320312 85.769531 180.09375 85.578125 182.828125 84.078125 Z M 130.027344 53.285156 C 129.734375 53.199219 129.265625 53.25 129.058594 53.441406 C 128.714844 53.765625 128.492188 54.238281 128.257812 54.671875 C 121.652344 66.777344 115.050781 78.882812 108.449219 90.992188 C 108.273438 91.316406 107.988281 91.636719 107.960938 91.976562 C 107.929688 92.414062 108.105469 92.867188 108.195312 93.3125 C 108.609375 93.152344 109.09375 93.078125 109.414062 92.804688 C 109.722656 92.542969 109.871094 92.082031 110.078125 91.703125 C 112.238281 87.738281 114.394531 83.773438 116.554688 79.808594 C 120.960938 71.71875 125.375 63.628906 129.78125 55.535156 C 130.042969 55.050781 130.273438 54.546875 130.546875 53.988281 C 130.371094 53.730469 130.246094 53.347656 130.027344 53.285156 Z M 130.027344 53.285156 " fill-opacity="1" fill-rule="nonzero"/></g></svg>